<?xml version="1.0" encoding="UTF-8"?>
<svg version="1.1" xmlns="http://www.w3.org/2000/svg" width="1934" height="777">
<path d="M0 0 C43.23 0 86.46 0 131 0 C131 56.43 131 112.86 131 171 C136.94 168.36 142.88 165.72 149 163 C153.17829342 161.49311547 157.25811056 160.07773415 161.5 158.8125 C162.58603516 158.48427246 163.67207031 158.15604492 164.79101562 157.81787109 C188.91887289 150.75918945 213.48182126 147.57477243 238.5625 147.6875 C239.43329193 147.68965515 240.30408386 147.6918103 241.20126343 147.69403076 C294.38334175 147.90415259 349.13709981 163.13265373 391 197 C391.83015625 197.64066406 392.6603125 198.28132812 393.515625 198.94140625 C400.34944204 204.26017895 406.72249925 210.04564991 413 216 C413.50321777 216.47453613 414.00643555 216.94907227 414.52490234 217.43798828 C422.52391512 225.03048963 429.41254889 233.16621584 436 242 C436.42522949 242.55913086 436.85045898 243.11826172 437.28857422 243.69433594 C444.54280171 253.24950064 450.48228587 263.3565531 456 274 C456.36367676 274.69996094 456.72735352 275.39992188 457.10205078 276.12109375 C463.68223487 288.97173476 469.22805491 302.79422901 472 317 C453.84107811 317.37473473 435.68316703 317.65637113 417.52120686 317.82899475 C409.08695606 317.91130049 400.65511514 318.02337294 392.22241211 318.20703125 C384.86719009 318.36714561 377.51371351 318.46987505 370.15679711 318.50541592 C366.26470318 318.52617827 362.37759932 318.57448043 358.48711586 318.69168091 C332.93075573 319.43215026 332.93075573 319.43215026 326.33041382 313.53808594 C323.41273059 310.28166263 321.23451291 306.78897847 319.16937828 302.94947815 C308.84278437 285.73394618 282.81371171 274.94598243 264.453125 270.0390625 C235.70706674 262.97263921 206.34286884 268.75065949 181.21484375 283.93359375 C176.49967602 286.96436377 172.22952855 290.33067391 168 294 C167.18015625 294.67546875 166.3603125 295.3509375 165.515625 296.046875 C152.22041372 307.36019143 142.50535462 322.31746931 136.625 338.6875 C136.38620117 339.35168945 136.14740234 340.01587891 135.90136719 340.70019531 C132.623388 350.41079357 131.6329988 360.04089837 131.6875 370.25 C131.69241455 371.34610596 131.6973291 372.44221191 131.70239258 373.5715332 C132.11406436 402.17111054 144.94595884 426.58028173 164.97558594 446.39526367 C187.64569737 468.03881647 215.33692504 475.74085416 246.0078125 475.31640625 C273.26280141 474.43922576 297.64756697 461.42879569 316.8125 442.5625 C317.42270996 441.96630859 318.03291992 441.37011719 318.66162109 440.75585938 C321.27009334 438.11972043 323.59329398 435.73872577 325.39426517 432.46750832 C327.64201703 428.4222968 329.33734158 425.52282223 333.88445854 424.09298325 C337.53758862 423.76684148 341.07149598 423.76281802 344.73803711 423.86474609 C346.12821243 423.86757002 347.51840265 423.86597725 348.90856934 423.86032104 C352.66761924 423.85746065 356.42345472 423.91608944 360.1817596 423.98606062 C364.11470365 424.04873208 368.04772802 424.05446 371.98109436 424.0663147 C379.42246409 424.09735105 386.86235821 424.17934657 394.30307919 424.27980959 C402.77687362 424.39172815 411.25073994 424.44660149 419.72508991 424.49676394 C437.15091238 424.60118709 454.57529999 424.77698643 472 425 C471.53606955 426.8972916 471.06928177 428.79388464 470.60131836 430.69018555 C470.34168808 431.74642624 470.0820578 432.80266693 469.81455994 433.89091492 C460.90658737 467.89165986 440.05249303 497.95904835 416 523 C414.71609375 524.34578125 414.71609375 524.34578125 413.40625 525.71875 C407.63219566 531.63898294 401.49331543 536.88805384 395 542 C393.57300781 543.16982422 393.57300781 543.16982422 392.1171875 544.36328125 C378.08511889 555.61405749 362.26593889 564.40981931 346 572 C344.95972656 572.49628906 343.91945313 572.99257813 342.84765625 573.50390625 C281.94455691 601.13238271 211.75755295 602.11395404 149.32373047 579.27099609 C108.48384597 563.65380506 70.45266941 537.90271467 44.18457031 502.59033203 C43.11362181 501.15254173 42.02278372 499.72961884 40.9296875 498.30859375 C22.92488216 474.43582554 10.68081415 447.38111415 4.1875 418.25 C3.8949231 416.94023193 3.8949231 416.94023193 3.59643555 415.60400391 C0.65496717 401.51557708 -0.29915926 387.49875269 -0.24050903 373.14976501 C-0.24138384 371.52642025 -0.24313986 369.90307577 -0.24568737 368.27973276 C-0.25011088 363.87149074 -0.24222702 359.46334786 -0.23213124 355.05511844 C-0.22342603 350.28168511 -0.22642186 345.50825655 -0.22793579 340.7348175 C-0.22898021 332.48192477 -0.22275021 324.22906386 -0.21146011 315.97617912 C-0.1951476 304.04416426 -0.18999124 292.11216465 -0.18748413 280.18013985 C-0.18311602 260.81726877 -0.16983098 241.45441463 -0.15087891 222.09155273 C-0.13249717 203.2917489 -0.11835191 184.49194969 -0.10986328 165.69213867 C-0.10907511 163.95144571 -0.10907511 163.95144571 -0.10827102 162.17558723 C-0.10566078 156.35340025 -0.10313341 150.53121325 -0.10064721 144.70902622 C-0.07994225 96.4726691 -0.0430874 48.23634333 0 0 Z " fill="#1D439C" transform="translate(931,22)"/>
<path d="M0 0 C0.69480469 0.3614209 1.38960938 0.7228418 2.10546875 1.09521484 C22.09253622 11.5238351 40.02708966 24.71535146 56.6640625 39.8828125 C58.76918748 41.79080203 60.90613634 43.65047069 63.0625 45.5 C75.4359405 56.3078215 75.4359405 56.3078215 77 61 C76.58226318 61.4125 76.16452637 61.825 75.73413086 62.25 C73.79914973 64.16388778 71.86832199 66.08191671 69.9375 68 C69.28072266 68.64839844 68.62394531 69.29679687 67.94726562 69.96484375 C64.73020756 73.16605424 61.61274491 76.39600672 58.66015625 79.84375 C53.37385161 85.97505506 47.49924555 91.54317659 41.73828125 97.22265625 C37.88304096 101.04451783 34.06132988 104.84191852 30.53125 108.96875 C25.54919511 114.78604904 19.99289125 120.06330896 14.54296875 125.43652344 C9.39262859 130.52092259 4.34695045 135.63006576 -0.35986328 141.1328125 C-3.23383351 144.40463809 -6.3382327 147.44336812 -9.4375 150.5 C-10.07365234 151.13164062 -10.70980469 151.76328125 -11.36523438 152.4140625 C-12.90782806 153.94505774 -14.45357314 155.47287667 -16 157 C-20.14603216 155.1235202 -22.66094113 152.30399108 -25.625 148.9375 C-48.45022617 123.71126435 -80.67477782 105.80099191 -115 103 C-156.0734054 101.09412822 -191.70333227 113.82070214 -222.3125 141.5 C-257.36083836 174.65126998 -277.32862191 219.78594003 -279 268 C-279.43408654 297.05453367 -272.70361883 324.95697006 -260 351 C-259.68836914 351.64775391 -259.37673828 352.29550781 -259.05566406 352.96289062 C-252.32331755 366.79804081 -243.57383811 379.6810829 -233.00390625 390.875 C-231.11782341 392.87505666 -229.37525339 394.94398998 -227.625 397.0625 C-223.29130948 402.02382845 -218.18417752 405.96709594 -213 410 C-211.6078125 411.11568359 -211.6078125 411.11568359 -210.1875 412.25390625 C-181.44174393 434.71152818 -146.4079834 444.31172056 -110.2109375 440.56640625 C-86.00115066 437.43006604 -61.59016131 426.80021367 -43 411 C-42.16855469 410.29488281 -41.33710938 409.58976562 -40.48046875 408.86328125 C-35.69473549 404.66540184 -31.14254613 400.23242496 -26.625 395.75 C-25.87476563 395.00689575 -25.87476563 395.00689575 -25.109375 394.2487793 C-22.18863854 391.31472191 -19.52550873 388.27957058 -17 385 C-13.03110617 386.55624839 -10.68269821 389.31175101 -7.9375 392.4375 C-1.79301998 399.27665064 4.68603386 405.75003585 11.23657227 412.19897461 C14.74325396 415.66842496 18.17885068 419.13737399 21.38671875 422.88671875 C25.96068997 428.21123617 31.00534288 433.07564301 36 438 C46.65609056 448.50610537 46.65609056 448.50610537 50.48046875 452.984375 C53.31248614 456.29669579 56.32784943 459.39132693 59.42578125 462.453125 C59.9039328 462.92576782 60.38208435 463.39841064 60.87472534 463.88537598 C62.85734159 465.84032782 64.84364085 467.79144627 66.83422852 469.73828125 C68.30664999 471.18049799 69.77278012 472.62888151 71.23828125 474.078125 C72.10493408 474.92793945 72.97158691 475.77775391 73.86450195 476.65332031 C75.76077171 478.73711417 76.92913787 480.41980664 78 483 C58.47363632 502.92120382 58.47363632 502.92120382 48 511 C46.89929027 511.90907586 45.80184979 512.82211904 44.70703125 513.73828125 C29.44415386 526.42016667 12.59114896 536.86320059 -5 546 C-5.66999023 546.34869141 -6.33998047 546.69738281 -7.03027344 547.05664062 C-43.96865632 565.98733563 -85.36305655 574.22250043 -126.625 574.25 C-127.53595428 574.25067474 -128.44690857 574.25134949 -129.38546753 574.25204468 C-144.10671554 574.23476717 -158.47565461 573.58044212 -173 571 C-174.00224609 570.82307617 -175.00449219 570.64615234 -176.03710938 570.46386719 C-203.88223934 565.39076138 -230.018692 556.3209223 -255 543 C-255.71607422 542.62262695 -256.43214844 542.24525391 -257.16992188 541.85644531 C-273.63241772 533.13974651 -288.59507708 522.78358365 -303 511 C-303.82201904 510.33460205 -303.82201904 510.33460205 -304.66064453 509.65576172 C-319.40934804 497.65585815 -333.49836307 484.16882551 -345 469 C-346.00896317 467.71760508 -347.01951305 466.43645769 -348.03125 465.15625 C-391.18155686 410.16751453 -413.30262109 342.34705303 -413.1875 272.625 C-413.18656342 271.88366821 -413.18562683 271.14233643 -413.18466187 270.37854004 C-412.95848835 187.14223009 -381.2863026 109.40785668 -323 50 C-313.89120791 40.94911344 -304.2884749 32.67506069 -294 25 C-293.46117187 24.59362305 -292.92234375 24.18724609 -292.3671875 23.76855469 C-216.16886261 -33.42620246 -112.35394313 -48.21774906 0 0 Z " fill="#1D439C" transform="translate(413,42)"/>
<path d="M0 0 C43.23 0 86.46 0 131 0 C131.03738281 18.35496094 131.07476563 36.70992187 131.11328125 55.62109375 C131.14356047 67.2558665 131.17456886 78.89063046 131.20898438 90.52539062 C131.22703221 96.63972917 131.24489583 102.75406822 131.26245117 108.8684082 C131.2657627 110.01777205 131.2657627 110.01777205 131.26914114 111.19035536 C131.30442878 123.53102383 131.32933351 135.87169224 131.35034702 148.21239232 C131.37217533 160.89464369 131.40529188 173.57683009 131.44870156 186.25902611 C131.47509774 194.07301303 131.49288147 201.88691912 131.49934604 209.70094837 C131.50526607 215.71136938 131.52695634 221.72163246 131.55427551 227.73199844 C131.56301425 230.18399468 131.56678704 232.63601488 131.56500816 235.08802605 C131.55423393 256.80679642 131.87275215 281.22659944 147.87890625 297.96484375 C152.17403903 301.94057331 156.55516169 304.8616635 162 307 C162.72960937 307.2990625 163.45921875 307.598125 164.2109375 307.90625 C177.66749884 312.4908198 195.84003115 311.78906021 208.66015625 305.74609375 C221.85872646 298.44009787 228.09607299 287.90849576 232.3125 273.6875 C237.25492089 255.73212285 236.15767663 236.20693663 236.20532227 217.74169922 C236.21492366 215.35483642 236.22493498 212.96797524 236.23532104 210.58111572 C236.26213147 204.15677718 236.28326874 197.73243146 236.30332303 191.30806875 C236.3226459 185.25765676 236.34719301 179.20726493 236.37124526 173.15687026 C236.41868904 161.1874372 236.46201466 149.21799301 236.50268555 137.24853516 C236.5421596 125.63394305 236.58362416 114.0193608 236.62768555 102.40478516 C236.63043505 101.67937338 236.63318456 100.9539616 236.63601738 100.20656765 C236.65995805 93.89472087 236.68404763 87.58287467 236.70815182 81.27102852 C236.81141413 54.18070483 236.90491062 27.09035647 237 0 C280.23 0 323.46 0 368 0 C368.0806627 63.52635604 368.0806627 63.52635604 368.09765625 90.18359375 C368.10157114 96.28369152 368.10561187 102.38378918 368.10986328 108.48388672 C368.11039078 109.24828304 368.11091828 110.01267936 368.11146176 110.80023921 C368.12012631 123.09094379 368.13587486 135.38162938 368.15430559 147.67232275 C368.17310402 160.3150162 368.18413758 172.9576998 368.18817699 185.60040665 C368.19090159 193.38213887 368.19946076 201.16381742 368.21583293 208.9455331 C368.22779888 214.94378079 368.22888659 220.94198372 368.22621536 226.94024467 C368.22675941 229.37802902 368.23065365 231.81581566 368.23841095 234.25358772 C368.40067752 287.94278276 359.35818382 341.91873272 320.38134766 381.61474609 C290.68187228 411.39820726 248.83420441 424.16542198 208 429 C207.23445801 429.0935376 206.46891602 429.1870752 205.68017578 429.28344727 C168.65943104 433.43548112 129.29471646 427.36536103 95 413 C94.28440918 412.70399902 93.56881836 412.40799805 92.83154297 412.10302734 C76.81866255 405.36516836 62.54937254 395.99830229 50 384 C48.4840625 382.824375 48.4840625 382.824375 46.9375 381.625 C42.38136948 377.55356422 38.74736197 372.81071596 35 368 C34.33871094 367.16597656 33.67742188 366.33195312 32.99609375 365.47265625 C13.63434198 340.08724838 4.70104074 309.32952061 1 278 C0.91170962 277.2637101 0.82341925 276.52742021 0.73245341 275.7688185 C0.02497215 269.36912168 -0.13874596 263.05801408 -0.12025452 256.62313843 C-0.12110894 255.52020215 -0.12196337 254.41726587 -0.12284368 253.28090727 C-0.12448258 249.60831586 -0.11900327 245.93577076 -0.11352539 242.26318359 C-0.11324315 239.62134702 -0.11335801 236.97951323 -0.1139679 234.337677 C-0.11449061 228.66184388 -0.11137026 222.98602232 -0.10573006 217.31019211 C-0.09758075 209.10403535 -0.09499633 200.89788414 -0.09374207 192.69172378 C-0.09155693 179.37569681 -0.08491145 166.05967598 -0.07543945 152.74365234 C-0.0662514 139.81331411 -0.05918886 126.88297756 -0.05493164 113.95263672 C-0.05466364 113.14662588 -0.05439565 112.34061505 -0.05411953 111.51017964 C-0.05203994 105.20604232 -0.05008307 98.90190496 -0.04816496 92.59776759 C-0.03874226 61.73183942 -0.01862135 30.86592664 0 0 Z " fill="#1D439C" transform="translate(527,186)"/>
<path d="M0 0 C17.7375 -0.020625 35.475 -0.04125 53.75 -0.0625 C59.31069336 -0.071604 64.87138672 -0.08070801 70.60058594 -0.09008789 C77.49267578 -0.09460449 77.49267578 -0.09460449 80.73883057 -0.09544373 C82.96295371 -0.09695994 85.18707613 -0.10043567 87.41119385 -0.10557556 C90.81808863 -0.11304195 94.22493404 -0.11390119 97.63183594 -0.11352539 C98.59039364 -0.1171235 99.54895134 -0.12072161 100.53655624 -0.12442875 C110.40273369 -0.1101404 120.10189597 0.5050948 130 1 C130 53.47 130 105.94 130 160 C158.71 160 187.42 160 217 160 C212.40421693 180.68102381 212.40421693 180.68102381 210.35864258 188.44116211 C210.00904732 189.78386925 210.00904732 189.78386925 209.65238953 191.15370178 C208.90290104 194.02907741 208.14883435 196.9032278 207.39453125 199.77734375 C206.86430082 201.80702616 206.3343325 203.83677706 205.80461121 205.86659241 C204.70481708 210.07816953 203.60292427 214.28918931 202.49926758 218.49975586 C201.08402641 223.89915609 199.67259887 229.2995439 198.26251698 234.70029354 C196.91200893 239.87215571 195.55956918 245.04351214 194.20703125 250.21484375 C193.95000742 251.19828199 193.69298359 252.18172024 193.42817116 253.19495964 C192.70424717 255.96350798 191.97893915 258.73168973 191.25317383 261.49975586 C191.03863556 262.32095917 190.82409729 263.14216248 190.60305786 263.98825073 C189.80617909 267.02278477 188.99245166 270.02264503 188 273 C168.86 273 149.72 273 130 273 C130 286.53 130 300.06 130 314 C87.1 314 44.2 314 0 314 C0 300.47 0 286.94 0 273 C-28.38 273 -56.76 273 -86 273 C-84.87497632 263.99981058 -84.87497632 263.99981058 -83.99552917 260.63276672 C-83.79799545 259.86645432 -83.60046173 259.10014191 -83.39694214 258.31060791 C-83.18240387 257.49952576 -82.9678656 256.6884436 -82.74682617 255.8527832 C-82.51901962 254.9751683 -82.29121307 254.09755341 -82.0565033 253.19334412 C-81.30696414 250.31116735 -80.55013523 247.43096282 -79.79296875 244.55078125 C-79.26553157 242.53079034 -78.73846347 240.51070304 -78.21174622 238.49052429 C-77.10779339 234.26083151 -76.00040753 230.03205783 -74.89038086 225.80395508 C-73.47627492 220.4170924 -72.06910721 215.02844864 -70.66434765 209.63914204 C-69.57614474 205.46638088 -68.48500794 201.29439137 -67.39293861 197.12264061 C-66.87359626 195.13794526 -66.35495333 193.15306675 -65.83705711 191.16799355 C-65.10798824 188.37597455 -64.37516335 185.58496668 -63.64135742 182.79418945 C-63.43289185 181.99322845 -63.22442627 181.19226746 -63.00964355 180.36703491 C-61.19740437 173.50131122 -59.09436977 166.80670176 -57 160 C-38.19 160 -19.38 160 0 160 C0 107.2 0 54.4 0 0 Z " fill="#1D439C" transform="translate(1704,25)"/>
<path d="M0 0 C43.23 0 86.46 0 131 0 C131.99 2.97 132.98 5.94 134 9 C139.40527608 22.36577359 147.48670347 30.47351472 160.53515625 36.26953125 C182.12535007 45.04932133 207.63642281 44.00333031 230 39 C230.66282918 50.46895341 228.90199234 59.84400674 225.57421875 70.75390625 C225.10553331 72.34484572 224.63868517 73.93632744 224.17353821 75.52830505 C222.94770391 79.70619907 221.69812017 83.87659769 220.44281006 88.04571533 C219.21045893 92.15205866 217.99930874 96.26462496 216.78710938 100.37695312 C215.34088377 105.2782803 213.89198052 110.17874921 212.43063354 115.07559204 C209.86531796 123.67351738 207.33048734 132.27900329 204.85009766 140.90185547 C204.59491395 141.78831599 204.33973024 142.67477652 204.0768137 143.58809948 C202.84807639 147.85961435 201.62369379 152.13232368 200.40470886 156.40663147 C199.9675704 157.92988683 199.5303449 159.45311721 199.09301758 160.97631836 C198.89469896 161.67706167 198.69638035 162.37780499 198.49205208 163.09978294 C197.11330167 167.88669833 197.11330167 167.88669833 196 169 C150.89000314 175.76649953 94.74982803 166.60828411 57.41015625 139.4375 C22.97737933 113.53954209 7.16522642 76.33100864 1.1875 34.5625 C1.06334717 33.74346191 0.93919434 32.92442383 0.8112793 32.08056641 C-0.56813722 21.33638785 0 10.99581412 0 0 Z " fill="#1D439C" transform="translate(1704,447)"/>
<path d="M0 0 C43.23 0 86.46 0 131 0 C131 51.81 131 103.62 131 157 C87.77 157 44.54 157 0 157 C0 105.19 0 53.38 0 0 Z " fill="#1D439C" transform="translate(1450,447)"/>
<path d="M0 0 C43.23 0 86.46 0 131 0 C131 50.49 131 100.98 131 153 C87.77 153 44.54 153 0 153 C0 102.51 0 52.02 0 0 Z " fill="#1D439C" transform="translate(1450,186)"/>
<path d="M0 0 C15.35474113 11.90949451 25.3135962 28.27315014 27.8203125 47.625 C27.94364269 49.08183783 28.0483506 50.54039286 28.1328125 52 C28.1740625 52.68191406 28.2153125 53.36382812 28.2578125 54.06640625 C28.85708073 74.40407187 21.28628236 92.00930244 7.5078125 106.71875 C-6.78169938 120.4442022 -23.86579508 125.52142325 -43.21704102 125.421875 C-62.06472462 124.95524939 -77.804682 117.47415691 -90.8671875 104 C-104.173538 88.52650688 -109.84079062 69.51584921 -108.65234375 49.35546875 C-106.35241047 29.83889205 -97.07799721 13.33696044 -81.8671875 1 C-57.74563258 -16.40050628 -24.46280571 -17.06397347 0 0 Z " fill="#1D439C" transform="translate(1553.8671875,12)"/>
<path d="M0 0 C2.75102627 2.08004425 3.69043743 3.54148403 4.40625 6.9140625 C5.26405653 18.70890229 -3.0235629 30.03131436 -8.59765625 39.8984375 C-8.99903809 40.61273926 -9.40041992 41.32704102 -9.81396484 42.06298828 C-11 44 -11 44 -13.29296875 46.703125 C-16.05568188 52.03889133 -15.41629909 57.47138243 -15.25 63.375 C-15.23195313 64.58800781 -15.21390625 65.80101562 -15.1953125 67.05078125 C-15.14832216 70.0346679 -15.08263372 73.01692279 -15 76 C-6.85304777 72.94157575 -3.74340309 65.95722171 -0.078125 58.39453125 C1.04882055 55.97914891 1.04882055 55.97914891 1.953125 53.3125 C3.47324647 49.95461975 5.66695995 49.31932835 9 48 C9.66 48 10.32 48 11 48 C11 57.57 11 67.14 11 77 C15.89208878 74.07169646 15.89208878 74.07169646 19.1875 70 C19.67605469 69.319375 20.16460938 68.63875 20.66796875 67.9375 C23.45818075 63.87900982 24.17769106 61.91700765 24.25 57 C24.45703125 53.765625 24.45703125 53.765625 25 51 C27.87141463 48.80061858 29.40866803 48 33 48 C33 57.57 33 67.14 33 77 C37.89763231 74.06142061 40.65829429 71.44320336 44 67 C45.16208984 65.64455078 45.16208984 65.64455078 46.34765625 64.26171875 C53.89976397 54.50953209 53.89821609 44.40482561 53.48754883 32.52319336 C53.30563489 23.10536961 53.30563489 23.10536961 55.54589844 19.5390625 C57.27869732 17.77887108 58.9144765 16.31849959 61 15 C61.33 15 61.66 15 62 15 C62.33 22.26 62.66 29.52 63 37 C65.64 33.04 68.28 29.08 71 25 C72.32 25.33 73.64 25.66 75 26 C74.73727335 29.55017802 73.71688373 31.55880034 71.49609375 34.22265625 C60.96694308 47.18015776 61.7772653 59.88555374 63 76 C69.54236901 74.91005426 72.20772655 71.27087704 76 66 C78.44436484 61.48363056 80.37738957 56.86783128 82 52 C84.92079805 49.92469613 86.37546731 49 90 49 C90.33 57.91 90.66 66.82 91 76 C95.77599982 74.26612537 95.77599982 74.26612537 98.6484375 70.98828125 C99.09268066 70.39837402 99.53692383 69.8084668 99.99462891 69.20068359 C100.45015137 68.57758301 100.90567383 67.95448242 101.375 67.3125 C102.34596969 66.03808201 103.31990897 64.76592079 104.296875 63.49609375 C104.76287109 62.88878418 105.22886719 62.28147461 105.70898438 61.65576172 C110.87325054 55.03245364 116.56675833 49.91243464 125.17578125 48.69140625 C130.51408782 48.52050001 134.2253474 49.47182693 138.25 52.9375 C141.44984686 56.70874808 141.31312787 60.22480002 141 65 C139.67184359 70.14660608 137.59643478 74.03152024 134 78 C144.27973438 73.01588636 148.53700889 62.54621943 153.046875 52.71875 C154.3161877 50.42982546 155.57184189 49.88296658 158 49 C158.99 49 159.98 49 161 49 C161.33 51.97 161.66 54.94 162 58 C162.9075 56.88625 163.815 55.7725 164.75 54.625 C167.79704845 50.88544054 170.20770473 49.18288727 175.0625 48.6875 C178 49 178 49 179.8125 50.125 C183.00738063 55.16954837 182.11891608 62.11188034 182.0625 67.875 C182.05798828 68.75414062 182.05347656 69.63328125 182.04882812 70.5390625 C182.03712337 72.69273803 182.01919069 74.84637817 182 77 C185.1474562 75.2384825 187.59222422 73.66714028 189.8125 70.8125 C190.534375 69.884375 191.25625 68.95625 192 68 C193.32 68.66 194.64 69.32 196 70 C193.35748489 75.45018742 188.43809369 80.28095316 183 83 C179.5 83.1875 179.5 83.1875 176 83 C173.32151454 80.32151454 173.69495994 78.86029139 173.5859375 75.1171875 C173.54726562 73.95058594 173.50859375 72.78398438 173.46875 71.58203125 C173.42234375 69.74705078 173.42234375 69.74705078 173.375 67.875 C173.33632812 66.64394531 173.29765625 65.41289063 173.2578125 64.14453125 C173.1633001 61.09650624 173.07774506 58.04849138 173 55 C167.61944407 58.123449 164.5244338 61.2380618 162 67 C161.60253662 70.39831193 161.50217852 73.73790736 161.40234375 77.15625 C161 80 161 80 159.69140625 81.71875 C157.51190786 83.18220216 155.64450623 84 153 84 C152.67 78.39 152.34 72.78 152 67 C150.80375 68.546875 149.6075 70.09375 148.375 71.6875 C143.64636721 77.57331582 139.63480689 82.2131303 132 84 C129.1875 84.1875 129.1875 84.1875 127 84 C126.67 83.67 126.34 83.34 126 83 C124.45383539 83.17179607 122.91253591 83.3880987 121.375 83.625 C116.19886396 84.18778446 113.44843675 83.7235327 109 81 C106.45186081 77.77235703 105.73222532 74.98064311 105 71 C104.39671875 71.69867187 103.7934375 72.39734375 103.171875 73.1171875 C102.37265625 74.02726563 101.5734375 74.93734375 100.75 75.875 C99.96109375 76.77992188 99.1721875 77.68484375 98.359375 78.6171875 C94.98089454 82.02922903 93.16896307 82.93953639 88.375 83.1875 C85 83 85 83 83 82 C81.9458482 78.83754459 81.68724328 76.13051782 81.4375 72.8125 C81.35371094 71.72582031 81.26992187 70.63914062 81.18359375 69.51953125 C81.12300781 68.68808594 81.06242187 67.85664062 81 67 C80.62488281 67.51949219 80.24976563 68.03898438 79.86328125 68.57421875 C71.32964377 80.20318066 71.32964377 80.20318066 65 83 C61.52369989 83.36910522 58.19527957 83.59763979 55 82 C53.76240177 78.28720531 53.64391103 74.68693654 53.4375 70.8125 C53.39431641 70.06291016 53.35113281 69.31332031 53.30664062 68.54101562 C53.20077315 66.69421625 53.0999024 64.84713166 53 63 C52.67314209 63.46374023 52.34628418 63.92748047 52.00952148 64.40527344 C50.49949316 66.53051815 48.96884316 68.64006831 47.4375 70.75 C46.92380859 71.47960937 46.41011719 72.20921875 45.88085938 72.9609375 C42.385799 77.7367964 39.41636352 80.54551208 34 83 C30.1875 83.4375 30.1875 83.4375 27 83 C24.43383368 79.15075052 24.44902324 76.5650696 24 72 C23.35933594 72.78246094 22.71867187 73.56492187 22.05859375 74.37109375 C21.18582184 75.39401997 20.31207146 76.41611191 19.4375 77.4375 C18.59058594 78.44683594 17.74367188 79.45617187 16.87109375 80.49609375 C13.43169411 83.49562459 11.54294339 84.13009574 7 84 C4.609375 82.515625 4.609375 82.515625 3 80 C2.390625 76.546875 2.390625 76.546875 2.25 72.75 C2.19328125 71.48671875 2.1365625 70.2234375 2.078125 68.921875 C2.05234375 67.95765625 2.0265625 66.9934375 2 66 C1.23816406 67.10408203 1.23816406 67.10408203 0.4609375 68.23046875 C-7.75510204 79.87755102 -7.75510204 79.87755102 -14 83 C-16.6723621 83.13415472 -19.32250488 83.04318541 -22 83 C-24.03219488 79.59648662 -24.36891039 76.6767073 -24.625 72.75 C-24.69976563 71.67234375 -24.77453125 70.5946875 -24.8515625 69.484375 C-24.92503906 68.25460937 -24.92503906 68.25460937 -25 67 C-25.42410156 67.58007812 -25.84820313 68.16015625 -26.28515625 68.7578125 C-36.23433243 82.00880319 -36.23433243 82.00880319 -44 84 C-47.25 84.1875 -47.25 84.1875 -50 84 C-50.33 83.67 -50.66 83.34 -51 83 C-52.56700765 83.17116091 -54.12918058 83.3874087 -55.6875 83.625 C-61.26256457 84.24622148 -64.21745967 82.98752881 -68.75 79.75 C-70.65919074 77.07713296 -71.22557642 74.15726536 -72 71 C-72.99 72.5778125 -72.99 72.5778125 -74 74.1875 C-77.71741692 79.36458063 -82.57911095 82.83050077 -88.9375 83.875 C-89.948125 83.91625 -90.95875 83.9575 -92 84 C-92.495 83.505 -92.495 83.505 -93 83 C-94.39685738 83.03234828 -95.79294386 83.10107022 -97.1875 83.1875 C-102.82134541 83.25915463 -105.82145175 81.0333117 -109.875 77.25 C-110.24625 76.8375 -110.6175 76.425 -111 76 C-110.67 75.01 -110.34 74.02 -110 73 C-110.99 72.34 -111.98 71.68 -113 71 C-111.61411662 66.30657019 -109.60526517 62.2531339 -107.125 58.0625 C-106.78597656 57.48048828 -106.44695312 56.89847656 -106.09765625 56.29882812 C-105.4163573 55.12922176 -104.733108 53.96074916 -104.04785156 52.79345703 C-102.34275837 49.87509389 -100.67288283 46.9369221 -99 44 C-98.01 44 -97.02 44 -96 44 C-96 45.32 -96 46.64 -96 48 C-95.24203125 48.23847656 -94.4840625 48.47695313 -93.703125 48.72265625 C-90.55445898 50.21053745 -89.57441742 51.51363103 -87.75 54.4375 C-87.24984375 55.21996094 -86.7496875 56.00242187 -86.234375 56.80859375 C-83.62149562 61.4472815 -83.48473565 65.8044178 -84 71 C-84.78990171 73.52125603 -85.79191282 75.63416261 -87 78 C-84.73252141 78.22338382 -84.73252141 78.22338382 -82.70703125 75.9296875 C-79.81114817 72.7956149 -77.25585493 69.52549277 -74.6875 66.125 C-68.18781165 57.72861321 -61.95394699 50.37488629 -50.96484375 48.6875 C-45.46100802 48.34814982 -42.32432328 49.88648724 -38 53 C-35.3690319 57.18682299 -35.4720766 61.199958 -36 66 C-37.58753667 70.76261 -39.69414566 74.23816575 -43 78 C-33.96907386 73.62136914 -28.21207876 64.18981816 -25 55 C-24.06549627 49.37263361 -24.28558407 43.62224189 -24.375 37.9375 C-24.51844172 24.77385337 -24.11868505 13.76610798 -14.78125 3.55859375 C-10.33884645 -0.32850936 -5.73530084 -0.98920785 0 0 Z M-10.5 5.5 C-15.42148929 10.42148929 -16.18338438 15.75404021 -16.29296875 22.46875 C-16.27321653 24.81268043 -16.23771734 27.15652432 -16.1875 29.5 C-16.17396484 30.70398438 -16.16042969 31.90796875 -16.14648438 33.1484375 C-16.11135352 36.09942973 -16.06215996 39.04947412 -16 42 C-13.74115673 39.90784909 -12.2471975 37.91584257 -10.80859375 35.19921875 C-10.42123047 34.46896484 -10.03386719 33.73871094 -9.63476562 32.98632812 C-9.23966797 32.22771484 -8.84457031 31.46910156 -8.4375 30.6875 C-8.03853516 29.94048828 -7.63957031 29.19347656 -7.22851562 28.42382812 C-4.32814423 22.90876466 -1.7207941 17.67167231 -1.6875 11.3125 C-1.67074219 10.56613281 -1.65398437 9.81976562 -1.63671875 9.05078125 C-2.09797175 6.44693366 -2.88974852 5.5567429 -5 4 C-8.0571662 3.74275212 -8.0571662 3.74275212 -10.5 5.5 Z M-62 59 C-63.44440034 63.33320102 -63.54168843 67.4714847 -63 72 C-61.20353146 74.93423195 -60.0558929 76.47205355 -57 78 C-52.92090194 78.38482057 -50.70910127 78.44121857 -47.1875 76.25 C-43.7726064 72.73753801 -42.70030897 69.95005196 -42.625 65.0625 C-42.68972062 61.40578482 -42.9065094 60.15270131 -44.875 56.9375 C-48.1393214 53.96120696 -50.52250215 53.60418184 -54.9609375 53.64453125 C-58.41344041 54.24640436 -59.94190152 56.31823531 -62 59 Z M115 59 C113.65716351 61.68567297 113.75712481 63.87746853 113.6875 66.875 C113.65011719 67.92429687 113.61273437 68.97359375 113.57421875 70.0546875 C114.0976552 73.67552313 115.18431143 74.75371784 118 77 C121.49979425 78.74989713 125.30172402 77.97392321 129 77 C132.83639865 73.35542128 133.91066197 70.38473951 134.25 65.125 C134.20103123 61.31942721 133.41208795 59.03744409 131 56 C124.55721605 51.7048107 119.55074563 53.20814193 115 59 Z M-100 56 C-101.66264064 58.26213629 -103.18907401 60.50808909 -104.6875 62.875 C-105.11611328 63.52597656 -105.54472656 64.17695312 -105.98632812 64.84765625 C-107.05910893 66.52333642 -108.03745881 68.25865651 -109 70 C-108.67 70.66 -108.34 71.32 -108 72 C-106.35 71.01 -104.7 70.02 -103 69 C-102.896875 70.093125 -102.79375 71.18625 -102.6875 72.3125 C-102.26849 75.85244788 -102.26849 75.85244788 -100.75 77.9375 C-98.24161466 79.46044824 -96.88221436 79.56238329 -94 79 C-90.69380305 76.14058642 -90.05307387 74.41795669 -89.5 70.0625 C-89.78268503 64.7015804 -92.64763161 61.51147055 -96.125 57.625 C-97.8383665 55.78168982 -97.8383665 55.78168982 -100 56 Z " fill="#1D439C" transform="translate(1670,654)"/>
<path d="M0 0 C6.6 0 13.2 0 20 0 C27.24619212 7.87326644 27.24619212 7.87326644 29.26171875 11.4765625 C31.91140616 15.97189424 34.98960587 19.92458614 38.3125 23.9375 C42.61274931 29.23951193 46.80729668 34.60938144 51 40 C51.33 26.8 51.66 13.6 52 0 C58.27 0 64.54 0 71 0 C71 23.43 71 46.86 71 71 C64.4 71 57.8 71 51 71 C44.45453488 64.45453488 44.45453488 64.45453488 42.65234375 61.28125 C39.7201542 56.41133488 36.22696263 52.06343249 32.6875 47.625 C31.54279532 46.16102177 30.40077655 44.69493861 29.26171875 43.2265625 C28.77662842 42.60346191 28.29153809 41.98036133 27.79174805 41.33837891 C25.16713728 37.91304549 22.58915752 34.45221002 20 31 C19.67 44.2 19.34 57.4 19 71 C12.73 71 6.46 71 0 71 C0 47.57 0 24.14 0 0 Z " fill="#1D439C" transform="translate(1639,360)"/>
<path d="M0 0 C5.919375 -0.0825 11.83875 -0.165 17.9375 -0.25 C19.78722412 -0.28641602 21.63694824 -0.32283203 23.54272461 -0.36035156 C40.96906668 -0.56189456 40.96906668 -0.56189456 47.55810547 5.4128418 C52.91083495 11.32926579 53.45131309 17.09143241 53.3125 24.76953125 C52.72662615 30.82600213 50.52060893 34.92049703 45.9375 38.875 C43.98492209 40.28750317 42.00517659 41.6632156 40 43 C41.83121724 45.45993516 43.66445153 47.91829843 45.5 50.375 C46.04301758 51.10219238 46.58603516 51.82938477 47.14550781 52.57861328 C50.87190256 57.548976 54.69296645 62.40823213 58.671875 67.1796875 C60 69 60 69 60 71 C39.60251696 73.37491593 39.60251696 73.37491593 33.96240234 69.65673828 C30.24316574 65.68661425 28.21497986 60.91168241 26 56 C24.35 53.36 22.7 50.72 21 48 C20.67 55.59 20.34 63.18 20 71 C13.4 71 6.8 71 0 71 C0 47.57 0 24.14 0 0 Z M20 15 C20 20.28 20 25.56 20 31 C26.87884005 31.20234184 26.87884005 31.20234184 32 28 C33.44430855 25.11138291 33.37688506 23.20352299 33 20 C31.1264113 16.9594012 31.1264113 16.9594012 28 15 C25.36 15 22.72 15 20 15 Z " fill="#1D439C" transform="translate(1402,360)"/>
<path d="M0 0 C3.78636158 2.20733306 6.29547973 4.96496307 8 9 C10.06507119 17.56005317 8.6555393 25.54209984 4.3125 33.125 C-3.69104374 45.50121153 -3.69104374 45.50121153 -11 48 C-11.11214844 46.96552734 -11.11214844 46.96552734 -11.2265625 45.91015625 C-12.24660333 38.61986444 -14.46606597 33.77434994 -19 28 C-19.85271484 29.19496094 -19.85271484 29.19496094 -20.72265625 30.4140625 C-32.13305261 46.07240274 -32.13305261 46.07240274 -41 48 C-43.8125 48.1875 -43.8125 48.1875 -46 48 C-46.33 47.67 -46.66 47.34 -47 47 C-48.54616461 47.17179607 -50.08746409 47.3880987 -51.625 47.625 C-56.80113604 48.18778446 -59.55156325 47.7235327 -64 45 C-66.54813919 41.77235703 -67.26777468 38.98064311 -68 35 C-68.60328125 35.69867187 -69.2065625 36.39734375 -69.828125 37.1171875 C-70.62734375 38.02726563 -71.4265625 38.93734375 -72.25 39.875 C-73.03890625 40.77992188 -73.8278125 41.68484375 -74.640625 42.6171875 C-77.88037853 45.88912401 -80.39283295 47.28501627 -85 47.375 C-85.66 47.40335938 -86.32 47.43171875 -87 47.4609375 C-89.9964008 46.77036075 -91.15141319 45.4148935 -93 43 C-94.53224225 35.69807315 -93.04080664 29.73059707 -89.09375 23.546875 C-88.7328125 23.03640625 -88.371875 22.5259375 -88 22 C-90.31 22 -92.62 22 -95 22 C-95.36351562 23.29744141 -95.36351562 23.29744141 -95.734375 24.62109375 C-99.24157481 33.98445128 -106.69482707 42.30087693 -115.5625 46.8125 C-118.68298353 47.89048522 -120.74931906 48.29551645 -124 48 C-124 47.34 -124 46.68 -124 46 C-124.99 46.495 -124.99 46.495 -126 47 C-127.49756871 47.09499503 -128.99942932 47.12987198 -130.5 47.125 C-131.2940625 47.12757813 -132.088125 47.13015625 -132.90625 47.1328125 C-135 47 -135 47 -137 46 C-137.01458252 46.80630859 -137.02916504 47.61261719 -137.04418945 48.44335938 C-137.11908462 52.12936622 -137.2156096 55.81450837 -137.3125 59.5 C-137.33505859 60.7684375 -137.35761719 62.036875 -137.38085938 63.34375 C-137.62051646 71.70996112 -138.10242373 78.13656498 -143.25 85 C-147.58522479 88.24591704 -153.38158776 87.56125907 -158.5390625 87.56640625 C-162.42211246 86.93091839 -163.61449733 86.04545138 -166 83 C-164.71700242 80.13792848 -163.469364 77.9754912 -161 76 C-160.01 76 -159.02 76 -158 76 C-157.01 79.465 -157.01 79.465 -156 83 C-154.35 83.33 -152.7 83.66 -151 84 C-147.00339171 79.10911028 -147.61645757 74.00245316 -147.70703125 68.01171875 C-147.71339851 66.42421562 -147.71339851 66.42421562 -147.71989441 64.80464172 C-147.73665638 61.43199988 -147.77430488 58.05996055 -147.8125 54.6875 C-147.82755001 52.3977951 -147.84123786 50.10808082 -147.85351562 47.81835938 C-147.88655177 42.2120348 -147.93672683 36.60606046 -148 31 C-149.98 33.475 -149.98 33.475 -152 36 C-152.99 35.67 -153.98 35.34 -155 35 C-153.32902649 30.75703786 -151.58454726 26.5496142 -149.75 22.375 C-149.33814453 21.37339844 -149.33814453 21.37339844 -148.91796875 20.3515625 C-147.3464143 16.82789782 -146.18558495 15.11703975 -142.890625 13.0390625 C-140 12 -140 12 -138 12 C-137.67 13.65 -137.34 15.3 -137 17 C-136.030625 16.34 -135.06125 15.68 -134.0625 15 C-129.73142506 12.53137513 -125.88604012 12.25607284 -121 13 C-117.55495717 14.34806024 -116.31739694 15.5512664 -114.1875 18.5625 C-112.24512965 24.18515101 -111.93176206 29.16719125 -114.0546875 34.796875 C-115.74751736 38.26266868 -117.26127667 41.26127667 -120 44 C-106.99188951 36.47830346 -101.56957521 24.97528347 -95 12 C-93.38158203 12.48726562 -93.38158203 12.48726562 -91.73046875 12.984375 C-87.09821448 14.24551229 -83.08777924 14.85652482 -78.5625 13 C-78.046875 12.67 -77.53125 12.34 -77 12 C-76.505 12.99 -76.505 12.99 -76 14 C-77.36328125 16.35546875 -77.36328125 16.35546875 -79.3125 19.1875 C-83.86693696 26.16006118 -85.7270764 30.53732564 -84 39 C-82.32171592 39.96624167 -82.32171592 39.96624167 -80 40 C-74.67317563 36.61020267 -71.6172202 31.81279755 -68 26.72265625 C-63.10968933 20.06533879 -58.08798974 15.32477502 -50 13 C-45.35138059 12.34068055 -41.14991861 12.69448966 -37 15 C-33.32479547 18.16475945 -32.13405002 20.29086229 -31.75 25.1875 C-32.19460186 31.96767833 -34.41565377 36.94141106 -39 42 C-29.12164426 37.21049419 -23.74720886 26.40178926 -19 17 C-18.26867901 14.73767482 -18.26867901 14.73767482 -18 13 C-17.34 13 -16.68 13 -16 13 C-11.79734264 20.57074446 -7.82346503 28.23104446 -4 36 C1.023258 29.17595139 4.54800111 23.44955671 3.8125 14.6875 C2.93719736 10.57585252 2.93719736 10.57585252 0 8 C-2.28330101 7.63853543 -2.28330101 7.63853543 -4.6875 7.8125 C-5.89986328 7.85310547 -5.89986328 7.85310547 -7.13671875 7.89453125 C-7.75160156 7.92933594 -8.36648438 7.96414063 -9 8 C-10.35439668 5.29120665 -10.06501451 2.99066732 -10 0 C-6.71319761 -1.6434012 -3.42451264 -0.93569398 0 0 Z M-58 23 C-59.34283649 25.68567297 -59.24287519 27.87746853 -59.3125 30.875 C-59.34988281 31.92429687 -59.38726563 32.97359375 -59.42578125 34.0546875 C-58.9023448 37.67552313 -57.81568857 38.75371784 -55 41 C-51.50020575 42.74989713 -47.69827598 41.97392321 -44 41 C-40.16360135 37.35542128 -39.08933803 34.38473951 -38.75 29.125 C-38.79896877 25.31942721 -39.58791205 23.03744409 -42 20 C-48.44278395 15.7048107 -53.44925437 17.20814193 -58 23 Z M-138 24 C-138.48602703 26.92521861 -138.65916645 29.15989384 -138.5625 32.0625 C-138.57345703 32.78244141 -138.58441406 33.50238281 -138.59570312 34.24414062 C-138.5493329 37.57352298 -138.47713069 39.49474371 -136.14453125 41.96484375 C-133.11704579 43.4261983 -131.33088387 43.53294142 -128 43 C-123.91544968 40.25078344 -121.0281686 37.91236107 -120 33 C-119.8529422 28.48716386 -120.48813783 25.72262895 -123.125 22 C-128.75124687 18.08608914 -133.45445821 19.15551027 -138 24 Z " fill="#1D439C" transform="translate(1253,690)"/>
<path d="M0 0 C3.97514026 3.02456324 6.34546138 6.29762709 8 11 C9.31425408 21.0171805 6.67994733 29.79741452 0.625 37.8125 C-0.5609028 39.22743982 -1.76850209 40.62456078 -3 42 C-3.55429687 42.62390625 -4.10859375 43.2478125 -4.6796875 43.890625 C-6.25 45.5625 -6.25 45.5625 -9 48 C-9.99 48 -10.98 48 -12 48 C-12.061875 46.72125 -12.12375 45.4425 -12.1875 44.125 C-12.78561781 38.42475605 -15.21016494 33.93111068 -18 29 C-18.66 29 -19.32 29 -20 29 C-21.2148913 30.55868866 -22.42186049 32.12447066 -23.57958984 33.72607422 C-28.36138914 40.32919823 -32.75886491 45.83424095 -41 48 C-43.8242155 48.17392529 -45.46181013 48.26909493 -48 47 C-49.40155035 47.16555992 -50.7974637 47.38096609 -52.1875 47.625 C-57.11330827 48.2357685 -59.71214413 47.48695641 -64 45 C-66.89271758 42.10728242 -67.85285595 38.8826414 -69 35 C-69.44730469 35.61488281 -69.89460938 36.22976563 -70.35546875 36.86328125 C-77.53104674 46.45621814 -77.53104674 46.45621814 -83.16796875 47.33984375 C-87.18837383 47.60874523 -89.28935037 47.53732045 -92.5625 45.0625 C-94.5432351 40.84267304 -94.86862867 37.58004208 -94 33 C-92.59298013 29.50435894 -90.90034881 26.25095385 -89 23 C-91.7392959 22.16060731 -91.7392959 22.16060731 -95 23 C-96.70482742 25.25431724 -97.9558837 27.63993996 -99.30078125 30.125 C-103.1892782 36.70415806 -109.03495782 43.66258396 -116 47 C-118.99792313 47.56891281 -121.95333397 47.86459262 -125 48 C-125 47.34 -125 46.68 -125 46 C-125.99 46.495 -125.99 46.495 -127 47 C-134.30434783 47.23188406 -134.30434783 47.23188406 -138 46 C-138.0093457 46.86689453 -138.01869141 47.73378906 -138.02832031 48.62695312 C-138.07262577 51.87775741 -138.13436953 55.12765627 -138.20751953 58.37792969 C-138.23555071 59.77819961 -138.25685316 61.17862251 -138.27099609 62.57910156 C-138.36744239 71.59361548 -138.45135027 78.96256992 -144.78125 85.97265625 C-148.05588438 87.48890421 -150.90956751 87.43396611 -154.5 87.4375 C-155.8096875 87.45683594 -157.119375 87.47617187 -158.46875 87.49609375 C-162.43565803 86.93879583 -163.58773092 86.10764256 -166 83 C-164.70700306 80.11562221 -163.34058637 78.12780579 -161 76 C-160.01 76.33 -159.02 76.66 -158 77 C-157.67 78.98 -157.34 80.96 -157 83 C-154.65466049 83.76956136 -154.65466049 83.76956136 -152 84 C-149.19761119 82.09837902 -148.63257927 80.22173727 -148 77 C-147.91571518 75.41226694 -147.88220052 73.82140818 -147.88647461 72.23144531 C-147.88658791 70.82043549 -147.88658791 70.82043549 -147.88670349 69.38092041 C-147.89186478 68.37349792 -147.89702606 67.36607544 -147.90234375 66.328125 C-147.9037587 65.29057068 -147.90517365 64.25301636 -147.90663147 63.184021 C-147.91222553 59.87265124 -147.92477697 56.56134929 -147.9375 53.25 C-147.94251577 51.00390723 -147.94707854 48.75781339 -147.95117188 46.51171875 C-147.96219301 41.0077894 -147.97892526 35.50389954 -148 30 C-149.32 31.98 -150.64 33.96 -152 36 C-153.32 35.67 -154.64 35.34 -156 35 C-154.31446434 30.65023056 -152.34170762 26.5200195 -150.21484375 22.37109375 C-149.31705497 20.6188179 -148.45968794 18.84569696 -147.625 17.0625 C-145.22914617 14.0216086 -142.61744921 13.29682142 -139 12 C-138.67 13.98 -138.34 15.96 -138 18 C-137.236875 17.360625 -136.47375 16.72125 -135.6875 16.0625 C-131.64569224 12.96064753 -128.22980631 12.60841073 -123.29296875 12.640625 C-119.40244364 13.25038362 -117.67776365 15.18834816 -115 18 C-112.66325181 22.67349639 -113.47993579 28.93214028 -114 34 C-115.26668775 37.06485287 -116.82841465 39.50267684 -119 42 C-113.47402709 41.08104663 -110.45527691 37.14633229 -107 33 C-102.56576033 26.38895177 -98.99537402 19.36750379 -96 12 C-94.989375 12.33 -93.97875 12.66 -92.9375 13 C-88.37231009 14.29377852 -84.04828882 14.84032362 -79.5625 13 C-79.046875 12.67 -78.53125 12.34 -78 12 C-78 16.10597272 -78.1898526 16.72990346 -80.375 19.875 C-84.53644723 26.27631968 -85.30028316 31.4929209 -85 39 C-82.72356699 39.88798413 -82.72356699 39.88798413 -80 40 C-77.68504203 38.27083475 -77.68504203 38.27083475 -75.6875 35.6875 C-74.90761719 34.76839844 -74.12773437 33.84929688 -73.32421875 32.90234375 C-71.84684621 31.05749031 -70.38866965 29.19697141 -68.95703125 27.31640625 C-63.98131875 20.7913701 -58.44598817 14.55232589 -50 13 C-44.36406288 12.63639115 -40.8758155 12.82505037 -36 16 C-32.22871483 20.0323049 -32.45364 23.64061982 -32.5703125 28.94921875 C-33.21295691 33.51199407 -35.1828808 36.45725919 -38 40 C-38.66 40.99 -39.32 41.98 -40 43 C-29.20428213 36.40261686 -22.4776486 24.60118046 -18 13 C-17.34 13 -16.68 13 -16 13 C-15.69707031 13.61746094 -15.39414062 14.23492188 -15.08203125 14.87109375 C-12.55238181 19.98487739 -9.92567103 24.98613082 -7.015625 29.89453125 C-5.88100366 32.24668856 -5.41261507 34.43012572 -5 37 C0.64232811 29.01557343 4.54855173 22.09056291 3 12 C1.92517879 9.63965696 1.92517879 9.63965696 0 8 C-2.50880616 7.51738333 -2.50880616 7.51738333 -5.1875 7.75 C-6.08855469 7.78609375 -6.98960937 7.8221875 -7.91796875 7.859375 C-8.60503906 7.90578125 -9.29210937 7.9521875 -10 8 C-10.33 5.36 -10.66 2.72 -11 0 C-7.48365873 -1.75817064 -3.72104977 -0.93509916 0 0 Z M-58 22 C-60.37984777 26.07973904 -60.61635147 30.38670265 -60 35 C-58.36312815 38.58552881 -57.31027417 39.79315055 -54 42 C-49.65043356 42.57447104 -47.53158626 42.30089788 -43.6875 40.125 C-40.49968843 37.10857615 -39.68174622 33.76144967 -39.046875 29.5078125 C-38.97290335 25.55032949 -39.95580455 23.38349592 -42 20 C-47.78846851 16.14102099 -53.38512818 16.9779336 -58 22 Z M-137.890625 22.90234375 C-140.49743491 27.83141742 -140.09178631 34.69355257 -139 40 C-136.24234652 42.26374539 -134.5232246 42.92369641 -131 43.4375 C-127.22693478 42.88726132 -125.67599263 41.67599263 -123 39 C-120.47391198 34.76326289 -120.20064195 30.82112822 -121 26 C-122.32983955 23.0850392 -123.41818727 22.14235525 -126 20 C-130.57255802 19.0854884 -134.33976669 19.62829966 -137.890625 22.90234375 Z " fill="#1D439C" transform="translate(389,690)"/>
<path d="M0 0 C0.99 0 1.98 0 3 0 C3 1.32 3 2.64 3 4 C3.70125 4.165 4.4025 4.33 5.125 4.5 C10.04141463 7.06508589 13.26106083 11.78318249 15 17 C15.66885392 24.49993573 15.48303033 29.8358333 11 36 C20.84128329 29.71180341 25.87983353 21.47807398 29.6640625 10.56640625 C31.30229471 7.41927595 32.79997439 6.45231931 36 5 C36.99 5 37.98 5 39 5 C39.33 13.91 39.66 22.82 40 32 C44.77599982 30.26612537 44.77599982 30.26612537 47.6484375 26.98828125 C48.31480225 26.10342041 48.31480225 26.10342041 48.99462891 25.20068359 C49.6779126 24.26603271 49.6779126 24.26603271 50.375 23.3125 C51.34596969 22.03808201 52.31990897 20.76592079 53.296875 19.49609375 C53.76287109 18.88878418 54.22886719 18.28147461 54.70898438 17.65576172 C59.87325054 11.03245364 65.56675833 5.91243464 74.17578125 4.69140625 C79.51408782 4.52050001 83.2253474 5.47182693 87.25 8.9375 C90.44984686 12.70874808 90.31312787 16.22480002 90 21 C88.67184359 26.14660608 86.59643478 30.03152024 83 34 C93.27973438 29.01588636 97.53700889 18.54621943 102.046875 8.71875 C103.3161877 6.42982546 104.57184189 5.88296658 107 5 C107.99 5 108.98 5 110 5 C110.33 7.97 110.66 10.94 111 14 C111.9075 12.88625 112.815 11.7725 113.75 10.625 C116.79704845 6.88544054 119.20770473 5.18288727 124.0625 4.6875 C127 5 127 5 128.8125 6.125 C132.00738063 11.16954837 131.11891608 18.11188034 131.0625 23.875 C131.05798828 24.75414062 131.05347656 25.63328125 131.04882812 26.5390625 C131.03712337 28.69273803 131.01919069 30.84637817 131 33 C134.1474562 31.2384825 136.59222422 29.66714028 138.8125 26.8125 C139.534375 25.884375 140.25625 24.95625 141 24 C142.98 24.99 142.98 24.99 145 26 C142.35748489 31.45018742 137.43809369 36.28095316 132 39 C128.5 39.1875 128.5 39.1875 125 39 C122.32151454 36.32151454 122.69495994 34.86029139 122.5859375 31.1171875 C122.54726563 29.95058594 122.50859375 28.78398438 122.46875 27.58203125 C122.42234375 25.74705078 122.42234375 25.74705078 122.375 23.875 C122.33632813 22.64394531 122.29765625 21.41289063 122.2578125 20.14453125 C122.1633001 17.09650624 122.07774506 14.04849138 122 11 C116.61944407 14.123449 113.5244338 17.2380618 111 23 C110.60253662 26.39831193 110.50217852 29.73790736 110.40234375 33.15625 C110 36 110 36 108.69140625 37.71875 C106.51190786 39.18220216 104.64450623 40 102 40 C101.67 34.39 101.34 28.78 101 23 C99.80375 24.546875 98.6075 26.09375 97.375 27.6875 C92.64636721 33.57331582 88.63480689 38.2131303 81 40 C78.1875 40.1875 78.1875 40.1875 76 40 C75.67 39.67 75.34 39.34 75 39 C73.45383539 39.17179607 71.91253591 39.3880987 70.375 39.625 C65.19886396 40.18778446 62.44843675 39.7235327 58 37 C55.45186081 33.77235703 54.73222532 30.98064311 54 27 C53.39671875 27.69867187 52.7934375 28.39734375 52.171875 29.1171875 C51.37265625 30.02726563 50.5734375 30.93734375 49.75 31.875 C48.96109375 32.77992188 48.1721875 33.68484375 47.359375 34.6171875 C43.98089454 38.02922903 42.16896307 38.93953639 37.375 39.1875 C34 39 34 39 32 38 C30.9458482 34.83754459 30.68724328 32.13051782 30.4375 28.8125 C30.35371094 27.72582031 30.26992188 26.63914062 30.18359375 25.51953125 C30.12300781 24.68808594 30.06242188 23.85664062 30 23 C29.50371094 23.73605469 29.00742187 24.47210937 28.49609375 25.23046875 C19.73768451 37.81133364 19.73768451 37.81133364 12.8203125 39.546875 C10.625 39.875 10.625 39.875 7 40 C6.67 39.67 6.34 39.34 6 39 C4.60314262 39.03234828 3.20705614 39.10107022 1.8125 39.1875 C-2.90121742 39.2399579 -5.36017269 38.11985198 -9 35 C-10.02290185 33.68415442 -11.02750764 32.35352738 -12 31 C-12.55429687 31.49371094 -13.10859375 31.98742187 -13.6796875 32.49609375 C-14.40414062 33.13675781 -15.12859375 33.77742187 -15.875 34.4375 C-16.59429688 35.07558594 -17.31359375 35.71367188 -18.0546875 36.37109375 C-20.79968931 38.66961936 -22.48531382 39.17247016 -26 39.25 C-26.70125 39.27578125 -27.4025 39.3015625 -28.125 39.328125 C-28.74375 39.21984375 -29.3625 39.1115625 -30 39 C-32.34770643 35.47844036 -32.37669614 33.49228157 -32.625 29.3125 C-32.69976563 28.13300781 -32.77453125 26.95351563 -32.8515625 25.73828125 C-32.92503906 24.38283203 -32.92503906 24.38283203 -33 23 C-33.4846875 23.73605469 -33.969375 24.47210937 -34.46875 25.23046875 C-38.95030466 31.75457813 -43.06258267 37.5240955 -51.05859375 39.51171875 C-53 39.8125 -53 39.8125 -56 40 C-55.67 39.01 -55.34 38.02 -55 37 C-53.824375 36.484375 -52.64875 35.96875 -51.4375 35.4375 C-41.29258546 30.65593634 -36.75941832 19.18109704 -32.4375 9.5 C-30.86100297 6.75826603 -29.98645037 5.93326574 -27 5 C-26.01 5 -25.02 5 -24 5 C-23.67 13.91 -23.34 22.82 -23 32 C-17.66737493 29.86694997 -16.82267328 28.98391843 -13.75 24.4375 C-13.18454468 23.60085815 -13.18454468 23.60085815 -12.60766602 22.74731445 C-7.83005673 15.4945463 -3.9200629 7.73818562 0 0 Z M64 15 C62.65716351 17.68567297 62.75712481 19.87746853 62.6875 22.875 C62.65011719 23.92429687 62.61273437 24.97359375 62.57421875 26.0546875 C63.0976552 29.67552313 64.18431143 30.75371784 67 33 C70.49979425 34.74989713 74.30172402 33.97392321 78 33 C81.83639865 29.35542128 82.91066197 26.38473951 83.25 21.125 C83.20103123 17.31942721 82.41208795 15.03744409 80 12 C73.55721605 7.7048107 68.55074563 9.20814193 64 15 Z M0 12 C-1.13136586 13.55789683 -2.25482321 15.12153857 -3.375 16.6875 C-4.00148438 17.55761719 -4.62796875 18.42773438 -5.2734375 19.32421875 C-6.89415843 21.83596952 -7.99858088 24.19299187 -9 27 C-7.35 26.34 -5.7 25.68 -4 25 C-3.896875 26.093125 -3.79375 27.18625 -3.6875 28.3125 C-3.26849 31.85244788 -3.26849 31.85244788 -1.75 33.9375 C0.75838534 35.46044824 2.11778564 35.56238329 5 35 C8.30619695 32.14058642 8.94692613 30.41795669 9.5 26.0625 C9.26733507 21.80232488 7.75855343 19.28044191 5 16 C2.3908613 13.67722584 2.3908613 13.67722584 0 12 Z " fill="#1D439C" transform="translate(771,698)"/>
<path d="M0 0 C2.9375 1.875 2.9375 1.875 5 5 C7.96091456 19.20719528 -2.27135431 34.21499731 -9 46 C-9.66 46.99 -10.32 47.98 -11 49 C-11.24150773 51.51584891 -11.24150773 51.51584891 -11.125 54.1875 C-11.10695313 55.08855469 -11.08890625 55.98960937 -11.0703125 56.91796875 C-11.04710937 57.60503906 -11.02390625 58.29210937 -11 59 C-9.948125 57.6078125 -9.948125 57.6078125 -8.875 56.1875 C-5.29562974 51.93448422 -1.87018335 50.22188616 3.6875 49.5625 C7 50 7 50 8.67504883 51.67480469 C10.28515425 54.50042548 10.42552209 56.39963066 10.51171875 59.640625 C10.54716797 60.71054687 10.58261719 61.78046875 10.61914062 62.8828125 C10.64169922 63.99398437 10.66425781 65.10515625 10.6875 66.25 C10.72166016 67.37664062 10.75582031 68.50328125 10.79101562 69.6640625 C10.87343014 72.44260901 10.94260298 75.22084252 11 78 C16.00181337 75.03869076 19.11041296 71.76389586 22.5625 67.125 C23.47961008 65.91861758 24.39757279 64.71288284 25.31640625 63.5078125 C25.76169678 62.92241699 26.2069873 62.33702148 26.66577148 61.73388672 C35.14455136 50.71535155 35.14455136 50.71535155 42.12109375 49.6875 C45.92155921 49.5759267 47.79738032 49.86492021 51 52 C52.34343106 55.76160696 52.15427312 58.34126412 50.625 61.9375 C47.89602778 66.94381875 43.54736981 69.75187871 39 73 C38.34 73.66 37.68 74.32 37 75 C40.70638995 77.47092663 43.70026216 77.67030134 48 77 C51.24045872 75.33969988 51.24045872 75.33969988 54 73 C54.94875 72.2575 55.8975 71.515 56.875 70.75 C57.926875 69.88375 57.926875 69.88375 59 69 C59.66 69.33 60.32 69.66 61 70 C60.40316025 73.19484808 59.41582738 75.09481669 57.3125 77.5625 C56.83425781 78.14128906 56.35601563 78.72007812 55.86328125 79.31640625 C51.1484377 83.57656887 46.66485161 84.43121609 40.4375 84.4375 C39.15746094 84.45683594 37.87742187 84.47617187 36.55859375 84.49609375 C32.44088978 83.92205598 30.85503108 82.97442328 28 80 C26.60116105 77.38374148 25.90274782 74.8507826 25 72 C24.39671875 72.69867187 23.7934375 73.39734375 23.171875 74.1171875 C22.37265625 75.02726563 21.5734375 75.93734375 20.75 76.875 C19.96109375 77.77992188 19.1721875 78.68484375 18.359375 79.6171875 C14.99202072 83.01799231 13.14432945 83.92108073 8.375 84.25 C5 84 5 84 3 82 C2.14398991 78.71718922 1.83629789 75.51802473 1.68359375 72.13671875 C1.64169922 71.25048828 1.59980469 70.36425781 1.55664062 69.45117188 C1.51732422 68.53916016 1.47800781 67.62714844 1.4375 66.6875 C1.39431641 65.75615234 1.35113281 64.82480469 1.30664062 63.86523438 C1.20102775 61.57695546 1.09892248 59.28857628 1 57 C-3.02842442 57.59108261 -3.02842442 57.59108261 -6.125 60.1875 C-9.58676688 65.38015032 -11.08402851 68.85726556 -11.3125 75.125 C-11.62049998 80.52169524 -11.62049998 80.52169524 -13.3203125 82.6640625 C-15.50033931 84.12794523 -17.35029212 85 -20 85 C-20.33 78.73 -20.66 72.46 -21 66 C-22.175625 67.69125 -23.35125 69.3825 -24.5625 71.125 C-28.31967074 76.30362254 -32.16155895 81.08077947 -38 84 C-39.49649362 84.12005453 -40.99874793 84.17531451 -42.5 84.1875 C-43.2940625 84.20167969 -44.088125 84.21585938 -44.90625 84.23046875 C-47 84 -47 84 -49 82 C-49.31884766 80.02880859 -49.31884766 80.02880859 -49.4140625 77.6484375 C-49.45273437 76.79765625 -49.49140625 75.946875 -49.53125 75.0703125 C-49.5621875 74.18085937 -49.593125 73.29140625 -49.625 72.375 C-49.66367187 71.4778125 -49.70234375 70.580625 -49.7421875 69.65625 C-49.83658776 67.43784395 -49.91938805 65.21894987 -50 63 C-53.465 67.95 -53.465 67.95 -57 73 C-58.32 72.67 -59.64 72.34 -61 72 C-59.97651169 68.95190639 -58.86984746 66.83402565 -56.87109375 64.28515625 C-49.20536142 54.44441516 -49.06136597 44.46083667 -49.42553711 32.43579102 C-49.60180603 21.71905197 -49.60180603 21.71905197 -46.10546875 18.09765625 C-43 16 -43 16 -41 16 C-40.67 23.26 -40.34 30.52 -40 38 C-38.9275 36.185 -37.855 34.37 -36.75 32.5 C-34.921875 29.40625 -34.921875 29.40625 -33 27 C-31.68 27 -30.36 27 -29 27 C-28.505 27.99 -28.505 27.99 -28 29 C-28.88037109 30.86352539 -28.88037109 30.86352539 -30.2734375 33.09765625 C-30.7684375 33.89880859 -31.2634375 34.69996094 -31.7734375 35.52539062 C-32.30195312 36.36263672 -32.83046875 37.19988281 -33.375 38.0625 C-33.89578125 38.90361328 -34.4165625 39.74472656 -34.953125 40.61132812 C-38.80785248 46.80785248 -38.80785248 46.80785248 -40 48 C-40.15873955 50.21687994 -40.25133837 52.43855298 -40.31640625 54.66015625 C-40.33718735 55.32462265 -40.35796844 55.98908905 -40.37937927 56.6736908 C-40.44493658 58.80318543 -40.50378785 60.93280668 -40.5625 63.0625 C-40.60567939 64.50326847 -40.64929349 65.94402399 -40.69335938 67.38476562 C-40.80062393 70.9230404 -40.90187371 74.46145869 -41 78 C-35.80445248 76.10331217 -33.09058996 74.61288708 -29.875 69.9375 C-28.94300781 68.62072266 -28.94300781 68.62072266 -27.9921875 67.27734375 C-27.00605469 65.65505859 -27.00605469 65.65505859 -26 64 C-25.56026855 63.35699951 -25.12053711 62.71399902 -24.66748047 62.05151367 C-19.61501499 53.71143573 -20.3196279 44.86644581 -20.375 35.4375 C-20.41142213 12.12961626 -20.41142213 12.12961626 -14.625 5.125 C-9.68680486 1.12741346 -6.56995203 -0.93856458 0 0 Z M-8 4.625 C-11.76929824 9.10104166 -12.24962663 13.7892034 -12.1953125 19.4921875 C-12.18886719 20.69101562 -12.18242188 21.88984375 -12.17578125 23.125 C-12.15902344 24.3625 -12.14226563 25.6 -12.125 26.875 C-12.11597656 28.13570312 -12.10695313 29.39640625 -12.09765625 30.6953125 C-12.07415808 33.7970704 -12.04130334 36.89843652 -12 40 C-8.69836273 36.04101164 -6.62870344 32.23510753 -4.8125 27.4375 C-4.55275391 26.77814453 -4.29300781 26.11878906 -4.02539062 25.43945312 C-1.57579637 19.14140071 -0.27929668 13.77212599 -1 7 C-2.18294263 4.44001519 -2.18294263 4.44001519 -4 3 C-6.1707855 2.78980246 -6.1707855 2.78980246 -8 4.625 Z M35.75 57.0625 C33.70741665 60.49112205 33.22032138 63.0342151 33 67 C33.33 67.99 33.66 68.98 34 70 C39.10671663 68.64822207 42.31812969 65.43797044 45 61 C44.94203558 58.33363653 44.90716809 56.90716809 43 55 C39.49582024 54.43175463 38.40913664 54.62495808 35.75 57.0625 Z " fill="#1D439C" transform="translate(600,653)"/>
<path d="M0 0 C3.1349054 2.00955475 3.83197547 3.4623215 4.9375 7 C5.92464335 19.69946582 -2.13781477 35.0707584 -9.26953125 45.234375 C-11.18509704 48.295821 -11.44215105 49.82020565 -11.25 53.375 C-11.19585938 54.68597656 -11.19585938 54.68597656 -11.140625 56.0234375 C-11.09421875 56.67570313 -11.0478125 57.32796875 -11 58 C-10.44570312 57.50628906 -9.89140625 57.01257813 -9.3203125 56.50390625 C-8.59585937 55.86324219 -7.87140625 55.22257813 -7.125 54.5625 C-6.40570312 53.92441406 -5.68640625 53.28632812 -4.9453125 52.62890625 C-1.3373457 49.60777742 1.34123704 49.67306927 6 50 C8.10358381 51.54262813 8.84054159 52.68108317 10 55 C10.15222973 56.66565749 10.24917215 58.33656496 10.31640625 60.0078125 C10.35830078 60.99394531 10.40019531 61.98007812 10.44335938 62.99609375 C10.48267578 64.02863281 10.52199219 65.06117188 10.5625 66.125 C10.62727539 67.68541016 10.62727539 67.68541016 10.69335938 69.27734375 C10.7996288 71.85142528 10.90166583 74.42560508 11 77 C14.78222067 75.73766036 16.74061396 74.57932309 19.05078125 71.33203125 C19.58509766 70.60306641 20.11941406 69.87410156 20.66992188 69.12304688 C21.21197266 68.36056641 21.75402344 67.59808594 22.3125 66.8125 C32.5375569 52.48748103 32.5375569 52.48748103 40 50 C43.53648959 49.62923899 46.81065025 49.36815795 50 51.0625 C51.61972331 54.20071391 51.41226709 56.52517741 51 60 C48.55715477 64.88569047 44.92680589 68.03112865 40.8046875 71.484375 C38.91675177 73.02542772 38.91675177 73.02542772 37 75 C38.96783176 77.38912397 38.96783176 77.38912397 42.6875 77.375 C47.44189443 77.25397905 50.13608895 75.72746663 54 73 C55.90332221 70.91444964 55.90332221 70.91444964 57 69 C58.98 69.99 58.98 69.99 61 71 C58.25373627 76.60237801 55.47214766 79.92747161 50 83 C46.52613568 84.15795477 43.72230696 84.16829849 40.0625 84.1875 C38.83660156 84.20167969 37.61070313 84.21585938 36.34765625 84.23046875 C33.20947511 84.01442127 31.56518329 83.74022998 29 82 C26.34274053 78.45698737 25.50802768 75.36903809 25 71 C24.57589844 71.60328125 24.15179687 72.2065625 23.71484375 72.828125 C19.93298201 77.98143111 16.96430155 81.55037615 11 84 C7.1875 84.4375 7.1875 84.4375 4 84 C1.77464206 80.66196309 1.71021596 79.37180289 1.5859375 75.45703125 C1.52792969 73.84731445 1.52792969 73.84731445 1.46875 72.20507812 C1.4378125 71.08552734 1.406875 69.96597656 1.375 68.8125 C1.31699219 67.11577148 1.31699219 67.11577148 1.2578125 65.38476562 C1.16347467 62.5900075 1.07788348 59.79525722 1 57 C-2.9168039 57.54454728 -3.81780067 57.80932628 -6.6875 60.8125 C-10.25348716 65.7277796 -11.16580141 68.38156931 -11.25 74.5 C-11.60586916 80.48263061 -11.60586916 80.48263061 -13.32421875 82.73828125 C-15.50014649 84.18714354 -17.36739254 85 -20 85 C-20.33 78.4 -20.66 71.8 -21 65 C-22.0725 66.546875 -23.145 68.09375 -24.25 69.6875 C-25.49921515 71.45888708 -26.74914606 73.22976975 -28 75 C-28.66 75.94875 -29.32 76.8975 -30 77.875 C-33.18378188 81.25776824 -36.52607067 83.67789709 -41.16015625 84.28125 C-44.03125587 84.32293566 -46.4016883 84.29915585 -49 83 C-50.23759823 79.28720531 -50.35608897 75.68693654 -50.5625 71.8125 C-50.60568359 71.06291016 -50.64886719 70.31332031 -50.69335938 69.54101562 C-50.79922685 67.69421625 -50.9000976 65.84713166 -51 64 C-53.31 66.97 -55.62 69.94 -58 73 C-58.99 72.67 -59.98 72.34 -61 72 C-60.53175073 68.50485367 -58.8870512 66.55960674 -56.76318359 63.83789062 C-49.87453193 54.49680442 -50.12456954 44.68047608 -50.51367188 33.52392578 C-50.69259692 24.1025548 -50.69259692 24.1025548 -48.45410156 20.5390625 C-46.72130268 18.77887108 -45.0855235 17.31849959 -43 16 C-42.67 16 -42.34 16 -42 16 C-41.67 23.59 -41.34 31.18 -41 39 C-38.36 34.71 -35.72 30.42 -33 26 C-31.68 26.33 -30.36 26.66 -29 27 C-29.26272665 30.55017802 -30.28311627 32.55880034 -32.50390625 35.22265625 C-43.03305692 48.18015776 -42.2227347 60.88555374 -41 77 C-34.33853111 75.87378044 -31.94873552 72.27280406 -28 67 C-20.74222542 55.97092878 -20.06563091 46.59862797 -20.3125 33.6875 C-20.60004767 10.83075252 -20.60004767 10.83075252 -14.48120117 4.4050293 C-9.87533445 0.37603356 -6.08102442 -0.84291428 0 0 Z M-7 3 C-11.31141216 7.83400757 -12.12652367 11.03826941 -12.09765625 17.41796875 C-12.09443359 18.67158203 -12.09121094 19.92519531 -12.08789062 21.21679688 C-12.07951172 22.52712891 -12.07113281 23.83746094 -12.0625 25.1875 C-12.05748317 26.52278481 -12.05292059 27.85807141 -12.04882812 29.19335938 C-12.03702695 32.46228473 -12.02056297 35.73111991 -12 39 C-5.70520359 33.12660797 -1.77953826 21.52408139 -1 13 C-1.21259678 8.17981804 -1.21259678 8.17981804 -3.4375 4.0625 C-4.96072099 2.81256333 -4.96072099 2.81256333 -7 3 Z M33.9375 59.1328125 C32.27475485 62.44444658 32.68636293 65.36181001 33 69 C33.99 69.495 33.99 69.495 35 70 C40.30213788 66.79730802 40.30213788 66.79730802 44 62 C44.33397787 58.87413125 44.33397787 58.87413125 44 56 C42.96123766 54.77485711 42.96123766 54.77485711 40.75 54.5625 C37.38249202 55.09823991 35.98859043 56.45357562 33.9375 59.1328125 Z " fill="#1D439C" transform="translate(1465,653)"/>
<path d="M0 0 C6.105 -0.061875 12.21 -0.12375 18.5 -0.1875 C20.41103516 -0.21481201 22.32207031 -0.24212402 24.29101562 -0.27026367 C25.82942068 -0.27903694 27.36783278 -0.28667888 28.90625 -0.29296875 C30.07559082 -0.3159906 30.07559082 -0.3159906 31.26855469 -0.33947754 C37.58694861 -0.34245043 43.20504454 0.71631688 48.2421875 4.83203125 C48.78101563 5.48558594 49.31984375 6.13914062 49.875 6.8125 C50.70644531 7.78123047 50.70644531 7.78123047 51.5546875 8.76953125 C55.95886186 15.56624358 55.70054145 23.18896287 55 31 C53.41508949 37.30362134 50.56709449 41.49479236 45 45 C36.91218112 48.74801363 28.71407453 48.23765658 20 48 C20 55.59 20 63.18 20 71 C13.4 71 6.8 71 0 71 C0 47.57 0 24.14 0 0 Z M20 15 C20 20.61 20 26.22 20 32 C27.52637505 32.46852221 27.52637505 32.46852221 34 29 C35.26026798 26.47946405 34.91874445 25.1457902 34.5625 22.375 C34.46066406 21.55773437 34.35882812 20.74046875 34.25390625 19.8984375 C34.17011719 19.27195312 34.08632812 18.64546875 34 18 C32.989375 17.505 31.97875 17.01 30.9375 16.5 C30.36902344 16.2215625 29.80054688 15.943125 29.21484375 15.65625 C26.2664057 14.66856362 26.2664057 14.66856362 20 15 Z " fill="#1D439C" transform="translate(1269,360)"/>
<path d="M0 0 C0.33 9.24 0.66 18.48 1 28 C6.53450033 26.61637492 8.08673492 23.79309086 11.31640625 19.265625 C13.66386425 14.712319 13.60220513 10.74691603 13.66796875 5.70703125 C14 3 14 3 16.9375 0.6875 C20 0 20 0 22 0 C22 9.57 22 19.14 22 29 C26.93657577 25.70894949 29.59680917 23.34747904 32.875 18.75 C44.73092927 2.83938758 44.73092927 2.83938758 54 1 C59.3747675 0.29012505 63.37346343 1.09496541 68 4 C70.8681235 6.33338861 71.49639037 8.03334345 71.875 11.6875 C72.34480483 18.26476764 70.6550309 22.73024333 66.8125 28 C66.214375 28.66 65.61625 29.32 65 30 C74.58887481 24.62087511 78.75542021 16.06238372 82.34765625 6.0390625 C84.36669993 2.32554954 86.090066 1.44350817 90 0 C90.66 0 91.32 0 92 0 C92.495 14.355 92.495 14.355 93 29 C101.76963374 21.96164669 101.76963374 21.96164669 105.31640625 11.92578125 C105.35636719 10.85714844 105.39632812 9.78851562 105.4375 8.6875 C105.5625 5.58984375 105.5625 5.58984375 106 3 C108.87141463 0.80061858 110.40866803 0 114 0 C114.33 9.24 114.66 18.48 115 28 C119.81427402 26.21006252 119.81427402 26.21006252 122.8125 22.875 C123.534375 21.92625 124.25625 20.9775 125 20 C125.99 20.33 126.98 20.66 128 21 C126.95058884 26.68431045 122.98110266 30.38383731 118.625 33.9375 C114.81771053 35.47854574 112.09958453 35.40323782 108 35 C105.43383368 31.15075052 105.44902324 28.5650696 105 24 C104.55269531 24.61488281 104.10539062 25.22976563 103.64453125 25.86328125 C97.14821216 34.54812574 97.14821216 34.54812574 93 36 C89.3125 35.875 89.3125 35.875 86 35 C83.57520264 31.36280395 83.61337423 29.14296518 83.375 24.8125 C83.26285156 22.90404297 83.26285156 22.90404297 83.1484375 20.95703125 C83.09945312 19.98121094 83.05046875 19.00539063 83 18 C82.2265625 19.2375 82.2265625 19.2375 81.4375 20.5 C76.44736731 27.86306292 71.78718757 33.41650103 63 36 C60 36.3125 60 36.3125 58 36 C57.67 35.67 57.34 35.34 57 35 C55.45383539 35.17179607 53.91253591 35.3880987 52.375 35.625 C47.19886396 36.18778446 44.44843675 35.7235327 40 33 C37.45186081 29.77235703 36.73222532 26.98064311 36 23 C35.39671875 23.69867187 34.7934375 24.39734375 34.171875 25.1171875 C33.37265625 26.02726563 32.5734375 26.93734375 31.75 27.875 C30.96109375 28.77992188 30.1721875 29.68484375 29.359375 30.6171875 C27.20753999 32.79039836 25.71273529 33.75374338 23 35 C22.9906543 35.77601563 22.98130859 36.55203125 22.97167969 37.3515625 C22.91766563 40.90166287 22.83407697 44.45048948 22.75 48 C22.73582031 49.22074219 22.72164062 50.44148437 22.70703125 51.69921875 C22.51265294 58.89121626 21.93326593 63.91142046 18 70 C12.2607243 75.32932744 8.10713829 75.33225993 0.4375 75.29296875 C-5.07207117 74.82340303 -7.16807513 72.83192487 -11 69 C-10.82624516 65.69865812 -10.19905231 64.23757856 -8.0625 61.6875 C-6 60 -6 60 -4 60 C-3.6596875 61.8871875 -3.6596875 61.8871875 -3.3125 63.8125 C-2.54009656 66.81688303 -2.16270488 67.84208056 0.125 70.0625 C4.12617147 71.36722983 6.87830783 70.76845108 11 70 C13.10501166 64.82123428 13.26421742 60.37053515 13.1953125 54.8828125 C13.1924826 54.02565643 13.18965271 53.16850037 13.18673706 52.28536987 C13.17559999 49.56510068 13.1505076 46.84516859 13.125 44.125 C13.11496182 42.27344228 13.10583744 40.42187936 13.09765625 38.5703125 C13.07568188 34.0467464 13.041197 29.52343023 13 25 C12.44570312 25.63808594 11.89140625 26.27617188 11.3203125 26.93359375 C10.59585938 27.75988281 9.87140625 28.58617187 9.125 29.4375 C8.40570313 30.26121094 7.68640625 31.08492187 6.9453125 31.93359375 C4.85561922 34.15336834 3.91859395 34.91088268 0.90625 35.203125 C0.1121875 35.21859375 -0.681875 35.2340625 -1.5 35.25 C-2.2940625 35.27578125 -3.088125 35.3015625 -3.90625 35.328125 C-4.5971875 35.21984375 -5.288125 35.1115625 -6 35 C-8.40119059 31.39821412 -8.43771322 28.49133631 -8.625 24.3125 C-8.66367188 23.61060547 -8.70234375 22.90871094 -8.7421875 22.18554688 C-8.8362334 20.45745345 -8.9191968 18.72876325 -9 17 C-11.475 20.465 -11.475 20.465 -14 24 C-14.99 23.34 -15.98 22.68 -17 22 C-15.40405228 17.88495832 -13.63891395 13.86270723 -11.75 9.875 C-11.47542969 9.25496094 -11.20085938 8.63492188 -10.91796875 7.99609375 C-8.64634645 3.25930285 -5.54676789 0 0 0 Z M46 11 C43.54964469 16.01209041 43.88486268 19.68165279 45 25 C45.81452316 27.55851025 45.81452316 27.55851025 48 29 C52.22749718 30.17521157 55.73393067 30.46789519 59.875 28.9375 C63.59971022 25.54144068 65.15162073 21.98382867 65.4375 17 C65.28417257 12.7956006 63.68719591 10.24044213 61 7 C54.77485519 3.8874276 49.90314254 5.71927775 46 11 Z " fill="#1D439C" transform="translate(74,702)"/>
<path d="M0 0 C6.04350538 1.0086288 9.95416144 5.08705841 13.66796875 9.7265625 C20.02497886 19.62717622 20.30746966 31.83920176 18.1640625 43.11328125 C16.24977064 50.0095377 13.50081372 55.08796233 8.85546875 60.4765625 C8.19546875 61.4665625 7.53546875 62.4565625 6.85546875 63.4765625 C15.66560682 58.54038585 20.96625482 51.65493859 26.953125 43.68359375 C34.86774643 33.35951146 34.86774643 33.35951146 41.9296875 32.109375 C45.28041232 31.8987934 47.52100341 32.28077791 50.41796875 33.9765625 C52.10863873 36.91685811 52.27048682 38.99244934 51.65625 42.32421875 C49.11185572 49.16305411 42.74696486 53.62905483 36.85546875 57.4765625 C40.56260709 59.94798806 43.555328 60.14565461 47.85546875 59.4765625 C51.80771744 57.34842859 54.81029782 54.75597735 57.85546875 51.4765625 C59.34046875 51.9715625 59.34046875 51.9715625 60.85546875 52.4765625 C60.36624782 56.71891113 59.31922847 58.45917275 56.04296875 61.1640625 C55.35589844 61.74542969 54.66882813 62.32679688 53.9609375 62.92578125 C49.37445336 66.30395231 46.18455908 66.79441096 40.41796875 66.8515625 C39.11988281 66.87992188 37.82179688 66.90828125 36.484375 66.9375 C32.30128643 66.4061712 30.74093409 65.49892948 27.85546875 62.4765625 C26.4566298 59.86030398 25.75821657 57.3273451 24.85546875 54.4765625 C24.41976562 55.00765625 23.9840625 55.53875 23.53515625 56.0859375 C18.70081263 61.82018058 14.74378241 66.31679918 6.98046875 67.2265625 C5.60656254 67.32631807 4.23163318 67.41539964 2.85546875 67.4765625 C2.85546875 66.8165625 2.85546875 66.1565625 2.85546875 65.4765625 C1.37046875 65.9715625 1.37046875 65.9715625 -0.14453125 66.4765625 C-4.29685142 66.88090828 -8.0064475 66.8812145 -11.95703125 65.4765625 C-15.05877386 62.64068354 -16.51662196 59.30533241 -18.14453125 55.4765625 C-18.67240234 56.16492188 -18.67240234 56.16492188 -19.2109375 56.8671875 C-22.79703566 61.32406146 -25.87650939 64.1660266 -31.14453125 66.4765625 C-34.95703125 66.8515625 -34.95703125 66.8515625 -38.14453125 66.4765625 C-40.99067149 63.63042226 -40.60032201 60.67287108 -40.76953125 56.8515625 C-40.80820312 56.14515625 -40.846875 55.43875 -40.88671875 54.7109375 C-40.98100849 52.96657726 -41.06386016 51.22160559 -41.14453125 49.4765625 C-41.56863281 50.12882813 -41.99273437 50.78109375 -42.4296875 51.453125 C-46.88619107 58.09380505 -51.88295977 65.51987452 -60.14453125 67.4765625 C-62.95703125 67.1015625 -62.95703125 67.1015625 -65.14453125 66.4765625 C-64.14453125 64.4765625 -64.14453125 64.4765625 -60.58203125 62.9140625 C-51.88303508 58.66571553 -47.39827532 50.78553247 -43.46875 42.2734375 C-40.06240626 35.07891797 -40.06240626 35.07891797 -37.14453125 33.1640625 C-35.14453125 32.4765625 -35.14453125 32.4765625 -32.14453125 32.4765625 C-32.14453125 41.7165625 -32.14453125 50.9565625 -32.14453125 60.4765625 C-28.26642279 58.14969743 -26.47817398 57.0622951 -23.76953125 53.8515625 C-23.17398438 53.1503125 -22.5784375 52.4490625 -21.96484375 51.7265625 C-20.13971663 49.47061138 -18.39051279 47.16909854 -16.64453125 44.8515625 C-11.69816965 38.46205309 -6.33703821 33.08385434 1.85546875 31.4765625 C6.73664974 31.3431969 10.07390907 32.38103798 13.85546875 35.4765625 C12.23204753 25.46546499 10.30463712 17.33663159 2.54296875 10.4140625 C-2.62542185 8.61113555 -7.92437108 9.00876236 -13.14453125 10.4765625 C-10.99319781 1.70574156 -8.96498955 -0.26054131 0 0 Z M-4.6015625 39.91015625 C-8.74502424 44.69842184 -9.57603311 48.21978547 -9.14453125 54.4765625 C-7.39724347 58.20459715 -7.39724347 58.20459715 -4.14453125 60.4765625 C-1.06803991 60.97738667 0.99665482 61.00240408 3.69921875 59.34765625 C8.70069801 55.28925253 11.49021943 51.45073554 12.29296875 44.9140625 C11.77292766 40.82802539 10.8726594 39.24911607 7.85546875 36.4765625 C2.9539797 34.41277763 -0.92241394 36.2901897 -4.6015625 39.91015625 Z M35.54296875 39.3515625 C33.17317621 43.7400672 33.51398593 47.59146102 33.85546875 52.4765625 C38.30180474 51.07914262 40.90443965 49.08337585 43.85546875 45.4765625 C44.91296432 42.39286363 44.91296432 42.39286363 44.85546875 39.4765625 C43.03446728 37.27735754 43.03446728 37.27735754 40.48046875 37.0390625 C37.71055038 37.27879619 37.71055038 37.27879619 35.54296875 39.3515625 Z " fill="#1D439C" transform="translate(447.14453125,670.5234375)"/>
<path d="M0 0 C6.80305733 2.47928322 10.7626506 7.72119176 14 14 C18.2102625 24.95257099 18.09079288 37.86278529 13.92578125 48.828125 C11.55734353 53.81902847 8.736042 57.94372583 5 62 C12.55029657 59.41132689 16.35473469 54.45544492 20.8125 48.1875 C30.89820986 34.36726338 30.89820986 34.36726338 38 32 C41.51581712 31.63140627 44.79361334 31.39680667 48 33 C49.69225352 36.38450704 49.89419463 39.39748927 49 43 C45.50406918 48.60998928 40.46202421 52.43296378 35 56 C36.59969753 59.11492783 36.59969753 59.11492783 38.8828125 59.50390625 C45.68597838 59.68168933 48.99323406 57.37242455 54 53 C54.99 52.34 55.98 51.68 57 51 C57.66 51.99 58.32 52.98 59 54 C55.3008459 59.7729223 51.85022258 64.26043244 45 66 C32.13041836 67.54611679 32.13041836 67.54611679 27.25 64 C24.44619108 60.2615881 23.77610038 57.57899224 23 53 C22.6596875 53.51949219 22.319375 54.03898438 21.96875 54.57421875 C17.98610512 60.30456683 13.76976828 64.77982672 6.81640625 66.55859375 C3.51125563 67.04981797 1.18695466 67.06231822 -2 66 C-3.62552476 66.00551025 -5.25115276 66.05096441 -6.875 66.125 C-9.92344238 66.12943733 -12.00980306 65.99687136 -14.9375 65.0625 C-18.0627722 61.9372278 -18.91433973 58.21024347 -20 54 C-20.90492187 55.04800781 -20.90492187 55.04800781 -21.828125 56.1171875 C-23.02695313 57.48230469 -23.02695313 57.48230469 -24.25 58.875 C-25.03890625 59.77992188 -25.8278125 60.68484375 -26.640625 61.6171875 C-30.01910546 65.02922903 -31.83103693 65.93953639 -36.625 66.1875 C-40 66 -40 66 -42 65 C-43.0541518 61.83754459 -43.31275672 59.13051782 -43.5625 55.8125 C-43.68818359 54.18248047 -43.68818359 54.18248047 -43.81640625 52.51953125 C-43.87699219 51.68808594 -43.93757813 50.85664062 -44 50 C-44.51949219 50.74765625 -45.03898437 51.4953125 -45.57421875 52.265625 C-46.27160156 53.25046875 -46.96898437 54.2353125 -47.6875 55.25 C-48.37199219 56.22453125 -49.05648438 57.1990625 -49.76171875 58.203125 C-53.16906291 62.46081857 -56.74355538 65.42306661 -62 67 C-64.8125 67.125 -64.8125 67.125 -67 67 C-66.67 66.01 -66.34 65.02 -66 64 C-64.845 63.505 -63.69 63.01 -62.5 62.5 C-52.88098044 57.95816491 -47.60595566 47.53002566 -44 38 C-43.67 37.01 -43.34 36.02 -43 35 C-40.07920195 32.92469613 -38.62453269 32 -35 32 C-34.67 40.91 -34.34 49.82 -34 59 C-28.71260065 56.88504026 -26.87960808 54.75403437 -23.6875 50.375 C-10.75871188 33.3003543 -10.75871188 33.3003543 -1.125 31.125 C3.29155486 30.67998592 6.11352649 31.97579505 10 34 C10.47818136 25.07394801 8.48919139 19.20093946 2.59765625 12.4453125 C-0.59627101 9.55594065 -3.29440887 8.73306006 -7.5625 8.8125 C-8.32691406 8.81894531 -9.09132813 8.82539062 -9.87890625 8.83203125 C-12.18897716 8.92946495 -12.18897716 8.92946495 -15 10 C-14.50899836 3.49422832 -14.50899836 3.49422832 -12.25 1.30078125 C-8.28648808 -0.99062408 -4.4327563 -0.68761129 0 0 Z M-6 38 C-10.00153737 42.12958656 -12 46.14392223 -12 52 C-10.48483372 56.01519063 -9.5944747 57.60368353 -6 60 C-0.72340005 59.80457037 2.30692551 58.79565989 6 55 C8.8726307 50.28067814 10.65699236 45.82506715 9.375 40.3125 C7.65636925 37.42207556 6.02914339 36.40374938 3 35 C-0.88534116 35 -2.69309027 35.94971597 -6 38 Z M32 41 C30.8422494 44.47325181 30.93133348 47.36067448 31 51 C31.99 51.495 31.99 51.495 33 52 C37.51013077 49.19369641 40.83376557 46.96044124 42.8125 41.9375 C43.23784238 39.6718072 43.23784238 39.6718072 41 37 C36.52131145 36.17497843 34.76067114 37.54916108 32 41 Z " fill="#1D439C" transform="translate(1314,671)"/>
<path d="M0 0 C16.17 0 32.34 0 49 0 C49 5.28 49 10.56 49 16 C44.05 16 39.1 16 34 16 C34 34.15 34 52.3 34 71 C27.73 71 21.46 71 15 71 C15 52.85 15 34.7 15 16 C10.05 16 5.1 16 0 16 C0 10.72 0 5.44 0 0 Z " fill="#1D439C" transform="translate(1787,360)"/>
<path d="M0 0 C6.27 0 12.54 0 19 0 C19 23.43 19 46.86 19 71 C12.73 71 6.46 71 0 71 C0 47.57 0 24.14 0 0 Z " fill="#1D439C" transform="translate(1537,360)"/>
<path d="M0 0 C9.69128788 -0.57007576 9.69128788 -0.57007576 14 3 C18.1869791 7.06735112 19.56864412 11.29747526 20 17 C19.63734451 25.86088251 16.64129385 32.57153742 12 40 C11.62359375 40.66644531 11.2471875 41.33289063 10.859375 42.01953125 C9.875 43.6875 9.875 43.6875 8 46 C6.68 46 5.36 46 4 46 C3.98582031 45.443125 3.97164062 44.88625 3.95703125 44.3125 C3.56449047 38.03184746 1.71654076 34.03310133 -2 29 C-2.54269531 29.97582031 -3.08539062 30.95164062 -3.64453125 31.95703125 C-4.3669275 33.24233367 -5.08959818 34.52748187 -5.8125 35.8125 C-6.16892578 36.45509766 -6.52535156 37.09769531 -6.89257812 37.75976562 C-10.5823677 44.29306276 -10.5823677 44.29306276 -13 46 C-14.32 46 -15.64 46 -17 46 C-17.12117187 45.19175781 -17.24234375 44.38351562 -17.3671875 43.55078125 C-17.53476562 42.48214844 -17.70234375 41.41351562 -17.875 40.3125 C-18.03742187 39.25675781 -18.19984375 38.20101562 -18.3671875 37.11328125 C-18.95893069 34.20205086 -19.8031806 31.71044393 -21 29 C-21.86625 30.2375 -21.86625 30.2375 -22.75 31.5 C-23.4925 32.325 -24.235 33.15 -25 34 C-26.32 34 -27.64 34 -29 34 C-29 29.88884109 -27.06703418 27.06689733 -25.125 23.5625 C-24.39807759 22.23066513 -23.67150494 20.89863929 -22.9453125 19.56640625 C-22.60532227 18.94652832 -22.26533203 18.32665039 -21.91503906 17.68798828 C-20.89872116 15.81316919 -19.93206222 13.91808593 -19 12 C-18.34 12 -17.68 12 -17 12 C-16.73445312 12.80824219 -16.46890625 13.61648438 -16.1953125 14.44921875 C-15.84210937 15.51785156 -15.48890625 16.58648438 -15.125 17.6875 C-14.77695312 18.74324219 -14.42890625 19.79898438 -14.0703125 20.88671875 C-13.39499534 22.8510537 -12.66921242 24.79940332 -11.875 26.71875 C-10.89034109 29.28589645 -10.84421518 31.27376568 -11 34 C-10.34 34 -9.68 34 -9 34 C-6.58709508 26.41902924 -4.71636423 18.76624381 -3 11 C-2.01 11 -1.02 11 0 11 C0.22042969 11.8353125 0.22042969 11.8353125 0.4453125 12.6875 C2.02373138 18.05775274 4.13338553 21.85655773 7.63671875 26.203125 C9.25033957 28.32996046 10.20524994 30.45679979 11 33 C14.16151964 26.67696072 16.08476531 20.00528731 14.1875 13 C13.03344842 10.86877928 13.03344842 10.86877928 11 9 C8.6945386 8.66020252 6.42037177 8.55849274 4.09375 8.44140625 C2 8 2 8 0 5 C-0.125 2.3125 -0.125 2.3125 0 0 Z " fill="#1D439C" transform="translate(1003,691)"/>
<path d="M0 0 C2 1.0625 2 1.0625 3 3 C3.53180844 7.02654964 3.32307332 9.35385336 1.5 13 C-1.16507173 16.19808607 -4.01103653 18.81679287 -7.1953125 21.484375 C-9.08324823 23.02542772 -9.08324823 23.02542772 -11 25 C-9.03216824 27.38912397 -9.03216824 27.38912397 -5.3125 27.375 C-0.55810557 27.25397905 2.13608895 25.72746663 6 23 C7.90332221 20.91444964 7.90332221 20.91444964 9 19 C10.32 19.66 11.64 20.32 13 21 C10.25373627 26.60237801 7.47214766 29.92747161 2 33 C-1.47386432 34.15795477 -4.27769304 34.16829849 -7.9375 34.1875 C-9.16339844 34.20167969 -10.38929687 34.21585938 -11.65234375 34.23046875 C-14.81911894 34.01245272 -16.47043935 33.85501114 -19 32 C-20.265625 30.0546875 -20.265625 30.0546875 -21.25 27.875 C-21.58515625 27.15054688 -21.9203125 26.42609375 -22.265625 25.6796875 C-22.50796875 25.12539063 -22.7503125 24.57109375 -23 24 C-24.0209375 25.36125 -24.0209375 25.36125 -25.0625 26.75 C-28.80431762 31.20856015 -33.08939627 33.88755238 -38.9375 34.75 C-39.948125 34.8325 -40.95875 34.915 -42 35 C-41 32 -41 32 -39.29296875 31.0078125 C-38.59816406 30.71648438 -37.90335938 30.42515625 -37.1875 30.125 C-32.37679807 27.85709766 -30.00554733 25.16192676 -27.75 20.3125 C-21.96483073 9.36200102 -13.29586276 -1.46808485 0 0 Z M-14.0625 9.1328125 C-15.72524515 12.44444658 -15.31363707 15.36181001 -15 19 C-14.01 19.495 -14.01 19.495 -13 20 C-7.69786212 16.79730802 -7.69786212 16.79730802 -4 12 C-3.66602213 8.87413125 -3.66602213 8.87413125 -4 6 C-5.03876234 4.77485711 -5.03876234 4.77485711 -7.25 4.5625 C-10.61750798 5.09823991 -12.01140957 6.45357562 -14.0625 9.1328125 Z " fill="#1D439C" transform="translate(1054,703)"/>
<path d="M0 0 C4.33585394 2.60151236 6.05041587 5.39985767 8 10 C9.39788337 20.74229295 7.35055911 28.46697594 1.1875 37.125 C-1.87963454 41.01159797 -5.17187561 44.84278401 -9 48 C-9.66 48 -10.32 48 -11 48 C-11.08636719 47.38253906 -11.17273438 46.76507812 -11.26171875 46.12890625 C-12.34811959 39.58060027 -14.45873602 34.59573774 -18 29 C-18.66 29 -19.32 29 -20 29 C-21.35712166 30.55855981 -21.35712166 30.55855981 -22.625 32.5 C-23.29402344 33.47453125 -23.29402344 33.47453125 -23.9765625 34.46875 C-24.31429687 34.9740625 -24.65203125 35.479375 -25 36 C-26.32 35.67 -27.64 35.34 -29 35 C-27.22772632 30.09966327 -24.54679145 26.12159828 -21.65625 21.81640625 C-19.96199416 18.93537214 -18.94191921 16.19781571 -18 13 C-17.34 13 -16.68 13 -16 13 C-15.69707031 13.6290625 -15.39414062 14.258125 -15.08203125 14.90625 C-12.98739651 19.1857499 -10.86494617 23.32527887 -8.25 27.3125 C-6.39269328 30.18288312 -5.32518896 32.53131775 -5 36 C0.10803971 31.80411024 2.62254245 26.34319541 3.35546875 19.8515625 C3.72320427 14.22637068 3.72320427 14.22637068 1.76171875 9.15625 C-0.52307837 7.65669357 -1.91824489 7.72511454 -4.625 7.875 C-6.08221251 7.94573847 -7.54108313 7.99418758 -9 8 C-10 7 -10 7 -10.0625 3.4375 C-10.041875 2.303125 -10.02125 1.16875 -10 0 C-6.73025917 -1.63487041 -3.42805971 -0.84383008 0 0 Z " fill="#1D439C" transform="translate(721,690)"/>
<path d="M0 0 C3.05957468 0.32781157 4.05836134 1.05678401 6.3125 3.25 C8 6 8 6 8.125 8.3125 C6.41454533 12.39858616 3.82158547 15.61273435 1 19 C0.54882812 19.54785156 0.09765625 20.09570312 -0.3671875 20.66015625 C-1.625 22.0625 -1.625 22.0625 -4 24 C-5.32 23.67 -6.64 23.34 -8 23 C-6.02 20.03 -4.04 17.06 -2 14 C-2.66 12.68 -3.32 11.36 -4 10 C-4.9375 8.125 -4.9375 8.125 -5 6 C-3.51530064 3.76745208 -1.83998556 1.97461865 0 0 Z " fill="#1D439C" transform="translate(924,725)"/>
<path d="M0 0 C3.56311466 1.78155733 5.35645475 3.16763009 8 6 C6.55746343 9.36591866 4.66735273 11.51047079 2 14 C-1.7952131 12.50902342 -3.61042731 10.24299151 -6 7 C-4.02 4.69 -2.04 2.38 0 0 Z " fill="#1D439C" transform="translate(1875,725)"/>
<path d="M0 0 C3.82946843 1.45255699 5.12050295 3.42895561 7 7 C5.35 8.98 3.7 10.96 2 13 C-1.16115776 11.63016497 -1.9927092 11.0109362 -4 8 C-3.67339287 4.62505968 -2.11635213 2.57642867 0 0 Z " fill="#1D439C" transform="translate(1756,683)"/>
<path d="M0 0 C3.82946843 1.45255699 5.12050295 3.42895561 7 7 C5.35 8.98 3.7 10.96 2 13 C-1.16115776 11.63016497 -1.9927092 11.0109362 -4 8 C-3.67339287 4.62505968 -2.11635213 2.57642867 0 0 Z " fill="#1D439C" transform="translate(1275,683)"/>
<path d="M0 0 C3.82946843 1.45255699 5.12050295 3.42895561 7 7 C5.35 8.98 3.7 10.96 2 13 C-1.16115776 11.63016497 -1.9927092 11.0109362 -4 8 C-3.67339287 4.62505968 -2.11635213 2.57642867 0 0 Z " fill="#1D439C" transform="translate(806,683)"/>
<path d="M0 0 C4.62892224 3.32332879 4.62892224 3.32332879 6.0625 5.9375 C5.96522562 9.14755444 4.10034879 10.70871041 2 13 C-1.82946843 11.54744301 -3.12050295 9.57104439 -5 6 C-3.35 4.02 -1.7 2.04 0 0 Z " fill="#1D439C" transform="translate(411,683)"/>
<path d="M0 0 C3.42054006 1.14018002 4.2426201 1.92458518 6 5 C5.78884685 8.37845033 4.10517651 10.43717643 2 13 C-1.16115776 11.63016497 -1.9927092 11.0109362 -4 8 C-3.67339287 4.62505968 -2.11635213 2.57642867 0 0 Z " fill="#1D439C" transform="translate(743,683)"/>
</svg>
